<?xml version="1.0" encoding="UTF-8"?><svg id="Layer_1" xmlns="http://www.w3.org/2000/svg" xmlns:xlink="http://www.w3.org/1999/xlink" viewBox="0 0 354.84 74.45"><defs><linearGradient id="linear-gradient" x1="-535.75" y1="710.49" x2="-535.75" y2="687.6" gradientTransform="translate(564 710.49) scale(1 -1)" gradientUnits="userSpaceOnUse"><stop offset="0" stop-color="#62e7ae"/><stop offset="1" stop-color="#2dcf9e"/></linearGradient><linearGradient id="linear-gradient-2" x1="-520.81" y1="706.57" x2="-520.81" y2="683.68" xlink:href="#linear-gradient"/><linearGradient id="linear-gradient-3" x1="-511.96" y1="699.61" x2="-511.96" y2="676.72" xlink:href="#linear-gradient"/><linearGradient id="linear-gradient-4" x1="-510.13" y1="688.93" x2="-510.13" y2="666.04" xlink:href="#linear-gradient"/><linearGradient id="linear-gradient-5" x1="-516.76" y1="680.14" x2="-516.76" y2="657.24" xlink:href="#linear-gradient"/><linearGradient id="linear-gradient-6" x1="-548.8" y1="683.11" x2="-548.8" y2="660.22" xlink:href="#linear-gradient"/><linearGradient id="linear-gradient-7" x1="-552.55" y1="691.9" x2="-552.55" y2="669.01" xlink:href="#linear-gradient"/><linearGradient id="linear-gradient-8" x1="-547.82" y1="701.57" x2="-547.82" y2="678.68" xlink:href="#linear-gradient"/><linearGradient id="linear-gradient-9" x1="-533.02" y1="688.16" x2="-533.02" y2="665.27" xlink:href="#linear-gradient"/><linearGradient id="linear-gradient-10" x1="-527.54" y1="693.37" x2="-527.54" y2="670.48" xlink:href="#linear-gradient"/></defs><path d="M38.31,74.45h-13.14c.71-2.78,1.34-6.03,1.71-9.66.48-4.84.38-19.44.06-22.99h9.74c-.28,3.6-.34,18.13.08,22.84.33,3.64.89,6.92,1.55,9.81Z" style="fill:#66356e; stroke-width:0px;"/><path d="M28.25,22.88c6.32,0,11.45-5.12,11.45-11.45S34.56,0,28.25,0s-11.45,5.12-11.45,11.45,5.12,11.45,11.45,11.45h0Z" style="fill:url(#linear-gradient); stroke-width:0px;"/><path d="M43.19,26.81c6.32,0,11.45-5.12,11.45-11.45s-5.12-11.45-11.45-11.45-11.45,5.12-11.45,11.45,5.12,11.45,11.45,11.45Z" style="fill:url(#linear-gradient-2); stroke-width:0px;"/><path d="M52.04,33.77c6.32,0,11.45-5.12,11.45-11.45s-5.12-11.45-11.45-11.45-11.45,5.12-11.45,11.45,5.12,11.45,11.45,11.45Z" style="fill:url(#linear-gradient-3); stroke-width:0px;"/><path d="M53.87,44.45c6.32,0,11.45-5.12,11.45-11.45s-5.12-11.45-11.45-11.45-11.45,5.12-11.45,11.45,5.12,11.45,11.45,11.45Z" style="fill:url(#linear-gradient-4); stroke-width:0px;"/><path d="M47.24,53.24c6.32,0,11.45-5.12,11.45-11.45s-5.12-11.45-11.45-11.45-11.45,5.12-11.45,11.45,5.12,11.45,11.45,11.45Z" style="fill:url(#linear-gradient-5); stroke-width:0px;"/><path d="M15.19,50.27c6.32,0,11.45-5.12,11.45-11.45s-5.12-11.45-11.45-11.45-11.44,5.13-11.44,11.45,5.12,11.45,11.45,11.45h0Z" style="fill:url(#linear-gradient-6); stroke-width:0px;"/><path d="M11.45,41.48c6.32,0,11.45-5.12,11.45-11.45s-5.12-11.45-11.45-11.45S0,23.72,0,30.03s5.12,11.45,11.45,11.45Z" style="fill:url(#linear-gradient-7); stroke-width:0px;"/><path d="M16.17,31.81c6.32,0,11.45-5.12,11.45-11.45s-5.12-11.45-11.45-11.45-11.44,5.13-11.44,11.45,5.12,11.45,11.45,11.45h0Z" style="fill:url(#linear-gradient-8); stroke-width:0px;"/><path d="M30.98,45.22c6.32,0,11.45-5.12,11.45-11.45s-5.12-11.45-11.45-11.45-11.45,5.12-11.45,11.45,5.12,11.45,11.45,11.45Z" style="fill:url(#linear-gradient-9); stroke-width:0px;"/><path d="M36.46,40.01c6.32,0,11.45-5.12,11.45-11.45s-5.12-11.45-11.45-11.45-11.45,5.12-11.45,11.45,5.12,11.45,11.45,11.45Z" style="fill:url(#linear-gradient-10); stroke-width:0px;"/><path d="M48.37,30.31c-1.39,0-2.52,1.13-2.52,2.53,0,.67.27,1.29.7,1.75l-2.94,6.63-8.58,2.15h-.06s.03-.02.03-.02c1.81-1.69,3.62-3.38,5.42-5.08l.25-.62v-10.05c.97-.36,1.66-1.29,1.66-2.38,0-1.4-1.13-2.53-2.52-2.53s-2.52,1.13-2.52,2.53c0,1.1.69,2.02,1.65,2.38v9.69c-.63.6-1.26,1.19-1.9,1.79-1.34,1.27-2.68,2.53-4.03,3.8v-20.01l-.25-.61-1.55-1.56c.15-.33.24-.69.24-1.07,0-1.4-1.13-2.53-2.53-2.53s-2.52,1.13-2.52,2.53,1.13,2.53,2.52,2.53c.38,0,.74-.09,1.06-.23l1.3,1.3v19.64l-6.09-6.18v-6.75c.97-.36,1.66-1.28,1.66-2.37,0-1.4-1.13-2.54-2.53-2.54s-2.52,1.14-2.52,2.54c0,1.09.7,2.02,1.66,2.37v5.38h-6.64v-6.31c.97-.35,1.66-1.28,1.66-2.37,0-1.4-1.13-2.53-2.53-2.53s-2.52,1.13-2.52,2.53c0,1.1.7,2.02,1.66,2.37v7.18l.86.87h7.51l.25.61,7.57,7.66c.57.11,1.15.21,1.72.32l11.42-2.85.58-.49,3.08-6.96c.09.02.18.02.27.02,1.4,0,2.53-1.13,2.53-2.53s-1.13-2.53-2.53-2.53ZM38.65,25.35c0-.61.49-1.11,1.1-1.11s1.1.49,1.1,1.11-.49,1.1-1.1,1.1-1.1-.5-1.1-1.1ZM28.93,20.8c-.61,0-1.1-.49-1.1-1.1s.49-1.1,1.1-1.1,1.1.49,1.1,1.1-.49,1.1-1.1,1.1ZM15.87,27.69c-.61,0-1.1-.49-1.1-1.1s.49-1.1,1.1-1.1,1.1.49,1.1,1.1-.49,1.1-1.1,1.1ZM24.26,28.66c-.61,0-1.1-.49-1.1-1.1s.49-1.1,1.1-1.1,1.1.49,1.1,1.1-.49,1.1-1.1,1.1ZM48.43,34.05c-.61,0-1.1-.5-1.1-1.11s.49-1.1,1.1-1.1,1.1.5,1.1,1.1-.49,1.11-1.1,1.11Z" style="fill:#fff; stroke-width:0px;"/><rect x="31.12" y="44.84" width="1.9" height="29.6" style="fill:#fff; stroke-width:0px;"/><path d="M95.03,65.2c-3.31,0-5.96-1.19-7.98-3.56-2.02-2.37-3.02-6.04-3.02-11s1.01-8.62,3.02-11c2.02-2.37,4.67-3.56,7.98-3.56,2,0,3.72.44,5.16,1.31,1.44.88,2.48,2.04,3.1,3.48h.52v-13.84h9.86v37.63h-9.5l-.36-4.28h-.52c-.62,1.44-1.65,2.61-3.1,3.48-1.44.88-3.16,1.31-5.16,1.31h0ZM98.9,57.3c1.72,0,2.95-.57,3.69-1.7.74-1.14,1.11-2.41,1.11-3.82v-2.27c0-1.41-.37-2.69-1.11-3.82-.74-1.14-1.97-1.7-3.69-1.7-1.44,0-2.61.51-3.48,1.52-.88,1.01-1.31,2.73-1.31,5.14s.44,4.12,1.31,5.14c.88,1.01,2.04,1.52,3.48,1.52Z" style="fill:#66356e; stroke-width:0px;"/><path d="M127.45,65.2c-3.31,0-5.96-1.19-7.98-3.56-2.02-2.37-3.02-6.04-3.02-11s1.01-8.62,3.02-11c2.02-2.37,4.67-3.56,7.98-3.56,2,0,3.72.44,5.16,1.31,1.44.88,2.48,2.04,3.1,3.48h.52l.36-4.28h9.5v28.09h-9.86v-4.28h-.52c-.62,1.44-1.65,2.61-3.1,3.48-1.44.88-3.16,1.31-5.16,1.31h0ZM131.32,57.3c1.72,0,2.95-.57,3.69-1.7.74-1.14,1.11-2.41,1.11-3.82v-2.27c0-1.41-.37-2.69-1.11-3.82-.74-1.14-1.97-1.7-3.69-1.7-1.44,0-2.61.51-3.48,1.52-.88,1.01-1.31,2.73-1.31,5.14s.44,4.12,1.31,5.14c.88,1.01,2.04,1.52,3.48,1.52Z" style="fill:#66356e; stroke-width:0px;"/><path d="M150.37,64.68v-28.09h8.93l.36,4.08h.36c.62-1.79,1.57-2.97,2.86-3.56,1.29-.58,2.76-.88,4.41-.88h1.55v9.24h-1.76c-2.69,0-4.5.51-5.44,1.52-.95,1.01-1.42,2.49-1.42,4.41v13.27h-9.86Z" style="fill:#66356e; stroke-width:0px;"/><path d="M170.86,64.68v-28.09h9.55l.31,4.6h.41c.62-1.72,1.65-3,3.1-3.85,1.44-.84,3.05-1.27,4.8-1.27s3.54.43,5.14,1.29c1.6.86,2.78,2.41,3.54,4.65h.41c.58-2,1.68-3.48,3.28-4.47,1.6-.98,3.42-1.47,5.44-1.47,1.76,0,3.34.37,4.75,1.11,1.41.74,2.54,1.95,3.38,3.61.84,1.67,1.27,3.9,1.27,6.69v17.19h-9.86v-15.02c0-1.86-.28-3.26-.85-4.21-.57-.95-1.52-1.42-2.86-1.42s-2.42.51-3.12,1.52c-.71,1.01-1.06,2.09-1.06,3.23v15.9h-9.86v-15.02c0-1.86-.28-3.26-.85-4.21-.56-.95-1.52-1.42-2.86-1.42-1.41,0-2.46.51-3.15,1.52-.69,1.01-1.03,2.09-1.03,3.23v15.9h-9.86.01Z" style="fill:#66356e; stroke-width:0px;"/><path d="M220.27,33.66v-6.61h9.86v6.61h-9.86ZM220.27,64.68v-28.09h9.86v28.09h-9.86Z" style="fill:#66356e; stroke-width:0px;"/><path d="M234.41,64.68v-28.09h9.5l.36,4.6h.41c.69-1.72,1.78-3,3.28-3.85,1.5-.84,3.18-1.27,5.03-1.27s3.53.37,5.01,1.11c1.48.74,2.65,1.95,3.51,3.61.86,1.67,1.29,3.9,1.29,6.69v17.19h-9.86v-15.02c0-1.86-.31-3.26-.93-4.21-.62-.95-1.67-1.42-3.15-1.42s-2.7.51-3.46,1.52c-.76,1.01-1.14,2.09-1.14,3.23v15.9h-9.86,0Z" style="fill:#66356e; stroke-width:0px;"/><path d="M278.24,65.2c-2.62,0-4.88-.39-6.81-1.19-1.93-.79-3.42-1.9-4.47-3.33-1.05-1.43-1.57-3.09-1.57-4.98h9.71c.04.96.37,1.65,1.01,2.06.64.41,1.44.62,2.4.62s1.67-.17,2.11-.49c.45-.33.67-.77.67-1.31,0-.76-.31-1.25-.93-1.47-.62-.22-1.74-.45-3.36-.69-3.75-.55-6.51-1.46-8.28-2.73-1.78-1.27-2.66-3.32-2.66-6.14,0-1.89.52-3.55,1.57-4.96,1.05-1.41,2.52-2.51,4.41-3.31,1.89-.79,4.1-1.19,6.61-1.19,2.34,0,4.41.38,6.19,1.14,1.79.76,3.2,1.81,4.23,3.15,1.03,1.34,1.59,2.91,1.65,4.7h-9.71c0-1.44-.9-2.17-2.68-2.17-.73,0-1.31.15-1.76.44-.45.29-.67.73-.67,1.31,0,.73.39,1.21,1.16,1.47.77.26,2.13.52,4.06.8,3.68.45,6.3,1.34,7.85,2.69,1.55,1.34,2.32,3.37,2.32,6.09,0,3.03-1.2,5.37-3.59,7.02-2.39,1.65-5.55,2.48-9.47,2.48h0Z" style="fill:#66356e; stroke-width:0px;"/><path d="M294.19,64.68V27.04h10.02v19.51l2.17-2.69,6.25-7.28h12.08l-10.74,11.26,10.79,16.83h-11.61l-4.44-7.28-1.65-2.99-2.84,2.84v7.43h-10.02Z" style="fill:#66356e; stroke-width:0px;"/><path d="M327.39,73.31v-8.06h3.56c1.07,0,1.9-.21,2.5-.62.6-.41,1.07-1.05,1.42-1.91l.15-.41-10.53-25.71h10.84l3.87,13.11.62,2.63h.26l.57-2.63,3.61-13.11h10.58l-10.17,28.29c-.79,2.27-1.78,4.02-2.94,5.24-1.17,1.22-2.49,2.06-3.97,2.5-1.48.45-3.1.67-4.85.67h-5.52.01Z" style="fill:#66356e; stroke-width:0px;"/></svg>