<svg width="1000" height="841" viewBox="0 0 1000 841" fill="none" xmlns="http://www.w3.org/2000/svg">
<g clip-path="url(#clip0_20_5)">
<path d="M4.90332 792.164C4.90332 759.795 25.923 743.224 50.4837 743.224C66.9635 743.224 83.2617 750.442 90.7071 768.012C93.1586 773.868 90.8433 777.727 85.0776 778.726L81.9451 779.271C76.3611 780.224 73.8187 778.817 71.458 774.776C66.4187 766.241 59.5635 762.065 50.4383 762.065C36.0015 762.065 26.377 773.687 26.377 792.164C26.377 810.641 35.8653 822.036 50.4383 822.036C59.7451 822.036 66.6911 817.769 71.5034 808.962C73.6825 804.967 76.8151 803.468 82.1267 804.376L85.2592 804.921C91.2973 805.965 93.0678 810.596 89.5267 818.178C82.0359 834.249 66.2825 840.877 50.4837 840.877C25.7868 840.877 4.90332 825.305 4.90332 792.164Z" fill="#46C8F4"/>
<path d="M109.048 792.028C109.048 758.07 130.431 743.315 154.402 743.315C178.372 743.315 199.574 758.024 199.574 792.028C199.574 826.032 178.1 840.786 154.129 840.786C130.159 840.786 109.048 826.667 109.048 792.028ZM178.781 791.982C178.781 772.824 169.02 761.701 154.311 761.701C139.602 761.701 129.523 772.733 129.523 791.982C129.523 811.232 138.921 822.445 154.129 822.445C169.338 822.445 178.781 811.731 178.781 791.982Z" fill="#46C8F4"/>
<path d="M220.457 830.799V752.985C220.457 747.31 223.59 744.223 229.219 744.223H232.488C238.163 744.223 241.25 747.356 241.25 752.985V821.038H267.808C273.483 821.038 276.57 824.171 276.57 829.8V830.753C276.57 836.428 273.437 839.515 267.808 839.515H229.219C223.544 839.515 220.457 836.383 220.457 830.753V830.799Z" fill="#46C8F4"/>
<path d="M294.185 830.799V752.985C294.185 747.31 297.317 744.223 302.947 744.223H306.215C311.89 744.223 314.977 747.356 314.977 752.985V821.038H341.536C347.21 821.038 350.298 824.171 350.298 829.8V830.753C350.298 836.428 347.165 839.515 341.536 839.515H302.947C297.272 839.515 294.185 836.383 294.185 830.753V830.799Z" fill="#46C8F4"/>
<path d="M367.912 830.799V752.985C367.912 747.31 371.045 744.223 376.674 744.223H422.209C427.884 744.223 430.971 747.356 430.971 752.985V753.984C430.971 759.659 427.839 762.746 422.209 762.746H388.705V783.312H419.848C425.523 783.312 428.61 786.217 428.61 791.393V791.529C428.61 796.75 425.478 799.564 419.848 799.564H388.705V821.038H422.209C427.884 821.038 430.971 824.171 430.971 829.8V830.753C430.971 836.428 427.839 839.515 422.209 839.515H376.674C370.999 839.515 367.912 836.383 367.912 830.753V830.799Z" fill="#46C8F4"/>
<path d="M448.178 792.164C448.178 759.795 469.197 743.224 493.758 743.224C510.238 743.224 526.536 750.442 533.982 768.012C536.433 773.868 534.118 777.727 528.352 778.726L525.22 779.271C519.635 780.224 517.093 778.817 514.732 774.776C509.693 766.241 502.838 762.065 493.713 762.065C479.276 762.065 469.651 773.687 469.651 792.164C469.651 810.641 479.14 822.036 493.713 822.036C503.02 822.036 509.966 817.769 514.778 808.962C516.957 804.967 520.089 803.468 525.401 804.376L528.534 804.921C534.572 805.965 536.342 810.596 532.801 818.178C525.31 834.249 509.557 840.877 493.758 840.877C469.061 840.877 448.178 825.305 448.178 792.164Z" fill="#46C8F4"/>
<path d="M569.665 830.799V762.791H555.182C549.508 762.791 546.42 759.659 546.42 754.029V753.03C546.42 747.356 549.553 744.269 555.182 744.269H604.849C610.524 744.269 613.611 747.401 613.611 753.03V754.029C613.611 759.704 610.478 762.791 604.849 762.791H590.457V830.799C590.457 836.474 587.325 839.561 581.695 839.561H578.472C572.797 839.561 569.71 836.428 569.71 830.799H569.665Z" fill="#46C8F4"/>
<path d="M631.634 830.799V752.985C631.634 747.31 634.767 744.223 640.396 744.223H643.665C649.34 744.223 652.427 747.356 652.427 752.985V830.799C652.427 836.474 649.294 839.561 643.665 839.561H640.396C634.721 839.561 631.634 836.428 631.634 830.799Z" fill="#46C8F4"/>
<path d="M676.806 830.799V752.985C676.806 747.31 679.939 744.223 685.568 744.223H709.221C741.091 744.223 749.989 754.983 749.989 769.556C749.989 781.904 743.679 788.986 733.782 791.12C744.995 793.027 752.895 799.791 752.895 813.093C752.895 827.939 743.542 839.561 710.855 839.561H685.568C679.893 839.561 676.806 836.428 676.806 830.799ZM728.425 772.28C728.425 764.335 723.93 761.339 709.176 761.339H697.281V784.356H709.448C723.022 784.356 728.425 780.588 728.425 772.28ZM731.421 810.596C731.421 801.834 726.609 798.339 711.173 798.339H697.281V822.627H710.991C725.882 822.627 731.421 818.632 731.421 810.596Z" fill="#46C8F4"/>
<path d="M772.507 830.799V752.985C772.507 747.31 775.639 744.223 781.269 744.223H784.537C790.212 744.223 793.3 747.356 793.3 752.985V821.038H819.858C825.533 821.038 828.62 824.171 828.62 829.8V830.753C828.62 836.428 825.487 839.515 819.858 839.515H781.269C775.594 839.515 772.507 836.383 772.507 830.753V830.799Z" fill="#46C8F4"/>
<path d="M846.234 830.799V752.985C846.234 747.31 849.367 744.223 854.996 744.223H900.531C906.206 744.223 909.293 747.356 909.293 752.985V753.984C909.293 759.659 906.161 762.746 900.531 762.746H867.027V783.312H898.171C903.845 783.312 906.933 786.217 906.933 791.393V791.529C906.933 796.75 903.8 799.564 898.171 799.564H867.027V821.038H900.531C906.206 821.038 909.293 824.171 909.293 829.8V830.753C909.293 836.428 906.161 839.515 900.531 839.515H854.996C849.322 839.515 846.234 836.383 846.234 830.753V830.799Z" fill="#46C8F4"/>
<path d="M926 823.035C922.868 817.951 924.638 814.137 930.449 812.276L932.22 811.686C936.896 810.187 939.438 811.686 943.206 815.635C948.427 821.129 955.146 824.261 963.091 824.261C973.169 824.261 979.162 820.039 979.162 812.911C979.162 794.389 926.863 806.51 926.863 770.736C926.863 754.211 940.891 743.088 961.093 743.088C976.12 743.088 989.74 749.081 995.642 758.66C999.092 764.289 997.549 768.239 991.465 769.692L989.286 770.191C983.566 771.553 981.432 769.192 977.482 765.697C972.942 761.701 968.357 759.659 961.956 759.659C952.831 759.659 947.201 763.699 947.201 770.236C947.201 790.439 1000 776.365 1000 812.321C1000 829.482 984.928 840.695 963.273 840.695C947.065 840.695 932.447 833.568 926 822.99V823.035Z" fill="#46C8F4"/>
<path d="M539.702 606.846C540.7 608.072 541.745 609.253 542.789 610.433C540.201 613.475 537.432 616.471 534.526 619.467C448.677 707.677 325.328 687.565 309.711 684.751C291.279 681.437 233.623 670.132 182.958 624.688C183.185 622.418 183.275 620.148 183.275 617.833V284.197C183.275 278.25 182.594 272.439 181.278 266.855C181.369 266.764 181.505 266.628 181.596 266.537C246.607 204.84 323.058 199.891 344.35 198.847C354.157 198.348 476.189 194.262 546.421 276.842C543.924 279.43 541.518 282.109 539.157 284.878C514.097 314.387 497.481 350.933 489.49 389.84H426.568C426.114 386.526 421.211 353.476 390.43 337.087C361.829 321.787 333.909 333.318 329.505 335.225C301.539 347.347 291.506 373.633 287.965 382.939C282.79 396.468 282.472 409.588 281.791 435.829C281.201 459.391 280.928 471.195 283.698 484.406C287.057 500.386 295.047 538.158 328.098 554.002C329.823 554.819 368.23 572.434 399.919 548.509C426.068 528.806 426.568 496.845 426.568 492.986H488.174C495.574 534.708 512.689 574.522 539.702 606.846Z" fill="#46C8F4"/>
<path d="M901.576 254.551C813.411 183.729 708.812 202.479 688.065 206.202C665.774 210.197 597.767 222.364 546.421 276.842C551.914 283.334 557.089 290.326 561.902 297.953C583.648 332.41 589.867 367.14 591.729 389.84H489.491C482.59 423.48 482.136 458.891 488.174 492.986H597.358C593.408 516.185 581.786 565.715 542.789 610.433C654.606 738.548 885.55 695.873 957.779 593.363C969.765 576.338 976.892 558.36 981.114 541.381H816.725C793.708 567.531 759.069 579.834 726.336 572.888C686.476 564.398 655.832 528.715 652.382 485.177H993.69C994.78 474.963 1006.63 338.812 901.576 254.551ZM652.382 390.43C653.335 385.482 661.189 347.483 698.144 327.78C703.319 325.01 736.914 307.895 773.642 324.148C815.318 342.625 822.945 387.252 823.444 390.43H652.382Z" fill="#46C8F4"/>
<path d="M182.957 624.688C179.507 664.23 146.32 695.237 105.87 695.237H77.405C34.6393 695.237 0 660.598 0 617.832V284.197C0 241.476 34.6393 206.792 77.405 206.792H105.87C142.643 206.792 173.424 232.442 181.278 266.854C114.587 330.322 106.46 409.497 105.007 428.519C103.6 449.539 101.376 520.361 149.362 587.234C159.804 601.807 171.199 614.201 182.957 624.688Z" fill="#46C8F4"/>
<path d="M179.961 88.3462C179.961 137.105 140.418 176.647 91.6147 176.647C42.8109 176.647 3.31396 137.105 3.31396 88.3462H179.961Z" fill="#46C8F4"/>
<path d="M591.728 389.84H489.49C497.48 350.933 514.096 314.387 539.157 284.878C541.517 282.109 543.923 279.43 546.42 276.842C551.914 283.334 557.089 290.326 561.901 297.953C583.647 332.41 589.867 367.141 591.728 389.84Z" fill="#D2EEFC"/>
<path d="M597.358 492.986C593.408 516.185 581.786 565.715 542.789 610.433C541.744 609.252 540.7 608.072 539.701 606.846C512.689 574.522 495.574 534.707 488.174 492.986H597.358Z" fill="#D2EEFC"/>
<path d="M183.275 284.197V617.833C183.275 620.148 183.184 622.418 182.957 624.688C171.199 614.201 159.804 601.807 149.362 587.234C101.375 520.362 103.6 449.539 105.007 428.52C106.46 409.498 114.587 330.322 181.277 266.854C182.594 272.439 183.275 278.25 183.275 284.197Z" fill="#D2EEFC"/>
<path d="M179.961 88.3461H3.31396C3.31396 39.5424 42.8563 0 91.6147 0C140.373 0 179.961 39.5424 179.961 88.3461Z" fill="#D2EEFC"/>
</g>
<defs>
<clipPath id="clip0_20_5">
<rect width="1000" height="840.877" fill="white"/>
</clipPath>
</defs>
</svg>
