<svg width="94" height="103" viewBox="0 0 94 103" fill="none" xmlns="http://www.w3.org/2000/svg">
<path d="M93.47 59.07V76.92C88.99 77.72 84.12 78.12 78.85 78.12C75.73 78.12 72.98 77.84 70.58 77.28C68.19 76.72 65.79 75.71 63.39 74.23C61 72.75 59.13 70.44 57.82 67.27C56.5 64.12 55.84 60.18 55.84 55.48V35.35H32.24V50.56C32.24 56.54 34.95 59.54 40.39 59.54C41.82 59.54 43.82 59.38 46.37 59.06V76.91C41.89 77.71 37.03 78.11 31.76 78.11C28.64 78.11 25.88 77.83 23.49 77.27C21.09 76.71 18.7 75.7 16.29 74.22C13.9 72.74 12.04 70.43 10.72 67.26C9.39997 64.11 8.73999 60.17 8.73999 55.47V35.34H0V17.37H8.73999V0H32.22V17.37H55.82V0H79.29V17.37H92.83V35.34H79.29V50.55C79.29 56.53 82.01 59.53 87.44 59.53C88.88 59.53 90.87 59.37 93.43 59.05L93.47 59.07Z" fill="#EF476F"/>
<path d="M93.47 89.84H55.85V102.25H93.47V89.84Z" fill="#EF476F"/>
</svg>
