<svg width="171" height="171" viewBox="0 0 171 171" fill="none" xmlns="http://www.w3.org/2000/svg">
<g clip-path="url(#clip0_3_249)">
<path d="M144.39 0H25.99C11.6361 0 0 11.6361 0 25.99V144.39C0 158.744 11.6361 170.38 25.99 170.38H144.39C158.744 170.38 170.38 158.744 170.38 144.39V25.99C170.38 11.6361 158.744 0 144.39 0Z" fill="white"/>
<path d="M131.91 102.49V120.34C127.43 121.14 122.56 121.54 117.29 121.54C114.17 121.54 111.42 121.26 109.02 120.7C106.63 120.14 104.23 119.13 101.83 117.65C99.44 116.17 97.57 113.86 96.26 110.69C94.94 107.54 94.28 103.6 94.28 98.9V78.77H70.68V93.98C70.68 99.96 73.39 102.96 78.83 102.96C80.26 102.96 82.26 102.8 84.81 102.48V120.33C80.33 121.13 75.47 121.53 70.2 121.53C67.08 121.53 64.32 121.25 61.93 120.69C59.53 120.13 57.14 119.12 54.73 117.64C52.34 116.16 50.48 113.85 49.16 110.68C47.84 107.53 47.18 103.59 47.18 98.89V78.76H38.44V60.79H47.18V43.42H70.66V60.79H94.26V43.42H117.73V60.79H131.27V78.76H117.73V93.97C117.73 99.95 120.45 102.95 125.88 102.95C127.32 102.95 129.31 102.79 131.87 102.47L131.91 102.49Z" fill="#EF476F"/>
<path d="M131.92 133.26H94.3V145.67H131.92V133.26Z" fill="#EF476F"/>
</g>
<defs>
<clipPath id="clip0_3_249">
<rect width="170.38" height="170.38" fill="white"/>
</clipPath>
</defs>
</svg>
