<svg width="4828" height="1397" viewBox="0 0 4828 1397" fill="none" xmlns="http://www.w3.org/2000/svg">
<path d="M1887.98 688.668C1895.69 688.668 1906.41 687.927 1920.12 686.286L1919.59 780.966C1895.53 785.043 1869.38 787.056 1841.09 786.897C1824.38 786.791 1809.59 785.255 1796.73 782.184C1783.87 779.166 1771.07 773.659 1758.26 765.768C1745.46 757.878 1735.54 745.54 1728.58 728.754C1721.61 711.968 1718.18 691.104 1718.35 666.11L1718.93 559.356L1672 559.092L1672.54 463.776L1719.47 464.04L1720.01 371.902L1846.02 372.59L1845.49 464.729L1918.14 465.152L1917.6 560.468L1844.95 560.045L1844.47 640.746C1844.31 672.518 1858.78 688.457 1887.92 688.668H1887.98Z" fill="#EF476F"/>
<path d="M2033.98 454.986C2013.83 454.88 1997.17 448.102 1983.94 434.705C1970.7 421.307 1964.17 405.262 1964.27 386.623C1964.38 367.56 1971.13 351.515 1984.47 338.435C1997.87 325.356 2014.64 318.896 2034.78 319.001C2054.5 319.107 2071.06 325.779 2084.5 338.965C2097.95 352.203 2104.6 368.301 2104.49 387.364C2104.38 406.004 2097.52 421.943 2083.97 435.234C2070.41 448.525 2053.75 455.092 2034.03 454.986H2033.98ZM1969.09 781.231L1970.92 465.417L2096.93 466.106L2095.11 781.92L1969.09 781.231Z" fill="#EF476F"/>
<path d="M2168.41 782.343L2170.23 466.53L2296.24 467.218L2295.98 513.605C2313.34 476.856 2347.95 458.587 2399.81 458.904C2477.82 459.328 2516.56 503.65 2516.08 591.711L2514.95 784.25L2386.36 783.508L2387.27 622.742C2387.49 582.921 2372.81 562.905 2343.23 562.746C2311.51 562.587 2295.55 583.239 2295.28 624.754L2294.37 782.979L2168.35 782.29L2168.41 782.343Z" fill="#EF476F"/>
<path d="M2800.96 470.077L2926.97 470.765L2925.26 765.61C2924.94 816.868 2908.65 855.736 2876.34 882.266C2846.61 905.83 2804.55 917.427 2750.11 917.162C2692.67 916.844 2650.29 905.777 2623.02 884.066C2610.65 873.846 2600.52 861.137 2592.7 846.099C2584.82 831.007 2580.96 815.65 2581.07 799.976L2707.09 800.665C2708.27 822.27 2722.73 833.178 2750.65 833.337C2782.79 833.496 2798.97 816.657 2799.14 782.766L2799.46 724.941C2781.24 760.844 2747.91 778.689 2699.48 778.371C2620.61 777.948 2581.45 732.831 2581.98 643.023L2583 468.912L2709.02 469.601L2708.11 629.096C2707.89 665.951 2722.36 684.485 2751.5 684.644C2783.65 684.803 2799.83 663.092 2800.1 619.458L2800.96 470.13V470.077Z" fill="#EF476F"/>
<path d="M3340.98 696.823C3348.69 696.823 3359.41 696.082 3373.12 694.44L3372.59 789.121C3348.53 793.198 3322.39 795.211 3294.1 795.052C3277.38 794.946 3262.59 793.41 3249.73 790.339C3236.87 787.32 3224.07 781.813 3211.26 773.923C3198.46 766.033 3188.55 753.695 3181.58 736.909C3174.62 720.123 3171.19 699.259 3171.35 674.265L3171.94 567.511L3125 567.246L3125.54 471.93L3172.47 472.195L3173.01 380.056L3299.03 380.745L3298.49 472.884L3371.14 473.307L3370.61 568.623L3297.95 568.2L3297.47 648.9C3297.31 680.672 3311.78 696.611 3340.92 696.823H3340.98Z" fill="#EF476F"/>
<path d="M3763.87 617.182C3763.76 632.856 3762.64 648.318 3760.39 663.569L3525.07 662.245C3525.82 678.766 3531.66 691.74 3542.54 701.113C3553.41 710.486 3567.88 715.251 3585.83 715.357C3612.83 715.516 3629.6 707.785 3636.09 692.111L3758.25 692.799C3752.46 726.213 3733.92 752.689 3702.47 772.229C3671.07 791.769 3632.01 801.406 3585.29 801.142C3527 800.824 3481.35 785.838 3448.29 756.184C3415.23 726.583 3398.89 685.068 3399.16 631.691C3399.48 579.161 3416.41 537.858 3450.01 507.727C3483.6 477.65 3528.5 462.717 3584.65 463.035C3637.8 463.352 3680.99 477.756 3714.26 506.35C3747.53 534.945 3764.03 571.854 3763.76 617.182H3763.87ZM3525.45 593.618L3637.96 594.253C3637.64 576.884 3632.76 563.328 3623.39 553.479C3614.01 543.683 3600.56 538.758 3582.99 538.652C3565.84 538.546 3552.18 543.577 3542.06 553.691C3531.93 563.805 3526.36 577.096 3525.45 593.618Z" fill="#EF476F"/>
<path d="M4162.45 619.458C4162.34 635.132 4161.21 650.595 4158.96 665.845L3923.65 664.521C3924.4 681.043 3930.24 694.016 3941.11 703.389C3951.99 712.762 3966.45 717.528 3984.4 717.634C4011.41 717.792 4028.18 710.061 4034.66 694.387L4156.82 695.075C4151.03 728.489 4132.5 754.966 4101.04 774.505C4069.65 794.045 4030.59 803.683 3983.87 803.418C3925.57 803.1 3879.93 788.114 3846.87 758.461C3813.81 728.86 3797.47 687.344 3797.74 633.967C3798.06 581.438 3814.99 540.134 3848.58 510.004C3882.18 479.926 3927.07 464.993 3983.22 465.311C4036.37 465.629 4079.56 480.032 4112.83 508.627C4146.1 537.222 4162.61 574.13 4162.34 619.458H4162.45ZM3924.02 595.894L4036.54 596.529C4036.21 579.161 4031.34 565.605 4021.96 555.808C4012.59 546.012 3999.14 541.034 3981.56 540.981C3964.42 540.875 3950.76 545.906 3940.63 556.02C3930.5 566.134 3924.98 579.425 3924.02 595.947V595.894Z" fill="#EF476F"/>
<path d="M4399.26 702.754C4406.98 702.754 4417.69 702.012 4431.41 700.371L4430.87 795.051C4406.82 799.129 4380.67 801.141 4352.38 800.982C4335.66 800.876 4320.88 799.341 4308.07 796.269C4295.21 793.251 4282.41 787.744 4269.6 779.854C4256.8 771.964 4246.88 759.626 4239.92 742.839C4232.95 726.053 4229.52 705.19 4229.69 680.196L4230.27 573.442L4183.34 573.177L4183.88 477.861L4230.81 478.126L4231.35 385.987L4357.36 386.675L4356.83 478.814L4429.48 479.238L4428.94 574.554L4356.29 574.13L4355.81 654.831C4355.65 686.603 4370.12 702.542 4399.26 702.754Z" fill="#EF476F"/>
<path d="M4711.73 471.931C4789.74 472.354 4828.48 516.676 4828 604.737L4826.87 797.276L4698.28 796.534L4699.19 635.768C4699.41 595.947 4684.73 575.931 4655.21 575.772C4623.49 575.613 4607.52 596.265 4607.25 637.78L4606.34 796.005L4480.32 795.316L4482.9 350.509L4608.91 351.197L4607.89 526.578C4625.25 489.829 4659.87 471.56 4711.73 471.878V471.931Z" fill="#EF476F"/>
<path d="M3859.08 1215.08C3836.15 1215.08 3818.2 1207.88 3805.23 1193.47C3792.27 1179.07 3785.78 1160.64 3785.78 1138.19C3785.78 1115.74 3792.48 1097.52 3805.88 1082.91C3819.27 1068.29 3837.22 1060.98 3859.72 1060.98C3871.29 1060.98 3881.69 1063.63 3890.9 1068.93C3900.12 1074.22 3907.09 1081.42 3911.8 1090.53V1064.8H3939.45V1211.26H3911.8V1185.53C3907.09 1194.43 3899.91 1201.57 3890.26 1206.98C3880.62 1212.38 3870.22 1215.08 3859.08 1215.08ZM3862.94 1190.29C3878.58 1190.29 3890.85 1185.26 3899.74 1175.2C3908.64 1165.14 3913.09 1152.8 3913.09 1138.19C3913.09 1123.57 3908.64 1110.92 3899.74 1100.86C3890.85 1090.8 3878.58 1085.76 3862.94 1085.76C3847.29 1085.76 3835.93 1090.69 3826.93 1100.54C3817.93 1110.39 3813.43 1122.94 3813.43 1138.19C3813.43 1153.44 3817.93 1165.94 3826.93 1175.68C3835.93 1185.42 3847.93 1190.29 3862.94 1190.29Z" fill="#EF476F"/>
<path d="M4101.79 1064.8H4129.44V1207.45C4129.44 1235.41 4120.86 1255.96 4103.72 1269.09C4091.29 1278.2 4074.25 1282.75 4052.6 1282.75C4030.96 1282.75 4013.49 1277.99 4000.2 1268.45C3986.06 1258.71 3978.66 1245.79 3978.02 1229.69H4007.28C4008.56 1238.59 4013.01 1245.79 4020.62 1251.3C4028.22 1256.8 4038.89 1259.56 4052.6 1259.56C4085.39 1259.56 4101.79 1242.82 4101.79 1209.36V1185.53C4097.29 1194.64 4090.11 1201.84 4080.25 1207.13C4070.39 1212.43 4060 1215.08 4049.07 1215.08C4026.78 1215.08 4008.99 1207.77 3995.7 1193.15C3982.42 1178.54 3975.77 1160.22 3975.77 1138.19C3975.77 1116.16 3982.68 1097.79 3996.51 1083.06C4010.33 1068.34 4028.06 1060.98 4049.71 1060.98C4061.07 1060.98 4071.41 1063.63 4080.73 1068.93C4090.05 1074.22 4097.07 1081.42 4101.79 1090.53V1064.8ZM4052.92 1190.29C4068.14 1190.29 4080.3 1185.32 4089.41 1175.36C4098.52 1165.41 4103.07 1153.02 4103.07 1138.19C4103.07 1123.36 4098.52 1110.92 4089.41 1100.86C4080.3 1090.8 4068.14 1085.76 4052.92 1085.76C4037.71 1085.76 4026.46 1090.69 4017.24 1100.54C4008.03 1110.39 4003.42 1122.94 4003.42 1138.19C4003.42 1153.44 4008.03 1165.67 4017.24 1175.52C4026.46 1185.37 4038.35 1190.29 4052.92 1190.29Z" fill="#EF476F"/>
<path d="M4309.14 1129.61C4309.14 1133.63 4308.82 1139.14 4308.18 1146.13H4193.41C4193.63 1160.11 4197.91 1171.07 4206.27 1179.02C4214.63 1186.96 4225.88 1190.93 4240.03 1190.93C4259.74 1190.93 4272.82 1183.73 4279.25 1169.33H4307.22C4304.64 1182.88 4297.14 1193.9 4284.71 1202.37C4272.28 1210.84 4257.39 1215.08 4240.03 1215.08C4217.31 1215.08 4199.25 1208.14 4185.86 1194.27C4172.46 1180.39 4165.77 1161.59 4165.77 1137.87C4165.77 1114.15 4172.41 1095.93 4185.7 1081.95C4198.99 1067.97 4216.67 1060.98 4238.74 1060.98C4260.82 1060.98 4276.73 1067.34 4289.7 1080.05C4302.66 1092.75 4309.14 1109.28 4309.14 1129.61ZM4193.41 1124.84H4281.5C4281.5 1111.92 4277.69 1101.76 4270.09 1094.34C4262.48 1086.93 4251.92 1083.22 4238.42 1083.22C4224.92 1083.22 4214.47 1087.04 4206.43 1094.66C4198.4 1102.29 4194.06 1112.35 4193.41 1124.84Z" fill="#EF476F"/>
<path d="M4345.15 1211.26V1064.8H4373.11V1091.8C4377.19 1082.27 4383.67 1074.75 4392.56 1069.24C4401.46 1063.74 4412.23 1060.98 4424.87 1060.98C4461.73 1060.98 4480.16 1081 4480.16 1121.03V1211.26H4452.2V1133.11C4452.2 1116.58 4449.25 1104.4 4443.36 1096.57C4437.46 1088.73 4427.98 1084.81 4414.91 1084.81C4401.83 1084.81 4391.06 1089.15 4383.88 1097.84C4376.7 1106.52 4373.11 1118.49 4373.11 1133.74V1211.26H4345.15Z" fill="#EF476F"/>
<path d="M4588.5 1215.08C4565.99 1215.08 4548.1 1208.03 4534.81 1193.95C4521.52 1179.86 4514.88 1161.28 4514.88 1138.19C4514.88 1115.1 4521.52 1096.51 4534.81 1082.43C4548.1 1068.34 4565.99 1061.3 4588.5 1061.3C4608.43 1061.3 4624.5 1066.22 4636.72 1076.07C4648.93 1085.92 4655.9 1099.11 4657.61 1115.63H4629.64C4625.79 1095.93 4612.07 1086.08 4588.5 1086.08C4574.14 1086.08 4562.89 1090.69 4554.74 1099.9C4546.6 1109.12 4542.53 1121.88 4542.53 1138.19C4542.53 1154.5 4546.6 1167.26 4554.74 1176.47C4562.89 1185.69 4574.14 1190.29 4588.5 1190.29C4611.86 1190.29 4625.57 1180.76 4629.64 1161.7H4657.61C4655.9 1178.01 4648.93 1190.98 4636.72 1200.62C4624.5 1210.26 4608.43 1215.08 4588.5 1215.08Z" fill="#EF476F"/>
<path d="M4800.02 1064.8H4827.99V1214.12C4827.99 1237.21 4821.24 1254.79 4807.74 1266.87C4795.74 1277.46 4779.56 1282.75 4759.2 1282.75C4737.77 1282.75 4721.05 1277.67 4709.05 1267.5C4698.12 1258.39 4692.55 1245.79 4692.33 1229.69H4720.62C4721.69 1249.6 4734.44 1259.56 4758.88 1259.56C4786.31 1259.56 4800.02 1243.78 4800.02 1212.22V1184.89C4790.17 1205.02 4773.02 1215.08 4748.59 1215.08C4729.94 1215.08 4715.91 1209.41 4706.48 1198.08C4697.05 1186.75 4692.33 1171.44 4692.33 1152.17V1064.8H4720.3V1146.45C4720.3 1160.64 4723.14 1171.5 4728.82 1179.02C4734.5 1186.54 4744.2 1190.29 4757.91 1190.29C4771.63 1190.29 4781.81 1185.48 4789.1 1175.84C4796.38 1166.2 4800.02 1154.29 4800.02 1140.09V1064.8Z" fill="#EF476F"/>
<path d="M1183.9 0H213.1C95.4082 0 0 95.4082 0 213.1V1183.9C0 1301.59 95.4082 1397 213.1 1397H1183.9C1301.59 1397 1397 1301.59 1397 1183.9V213.1C1397 95.4082 1301.59 0 1183.9 0Z" fill="#EF476F"/>
<path d="M1081.57 840.348V986.706C1044.84 993.265 1004.91 996.545 961.698 996.545C936.116 996.545 913.568 994.249 893.89 989.658C874.293 985.066 854.615 976.785 834.936 964.65C815.34 952.515 800.007 933.574 789.266 907.583C778.443 881.755 773.032 849.449 773.032 810.913V645.86H579.528V770.572C579.528 819.604 601.748 844.202 646.352 844.202C658.077 844.202 674.476 842.89 695.384 840.266V986.624C658.651 993.184 618.802 996.463 575.592 996.463C550.01 996.463 527.38 994.167 507.784 989.576C488.105 984.984 468.509 976.703 448.749 964.568C429.152 952.433 413.901 933.492 403.078 907.501C392.255 881.673 386.844 849.367 386.844 810.831V645.778H315.182V498.437H386.844V356.014H579.364V498.437H772.868V356.014H965.306V498.437H1076.32V645.778H965.306V770.49C965.306 819.522 987.608 844.12 1032.13 844.12C1043.94 844.12 1060.25 842.808 1081.24 840.184L1081.57 840.348Z" fill="white"/>
<path d="M1081.65 1092.64H773.195V1194.39H1081.65V1092.64Z" fill="white"/>
</svg>
