<?xml version="1.0" encoding="UTF-8"?>
<svg id="Layer_2" data-name="Layer 2" xmlns="http://www.w3.org/2000/svg" xmlns:xlink="http://www.w3.org/1999/xlink" viewBox="0 0 341.6 90.55">
  <defs>
    <style>
      .cls-1 {
        fill: url(#linear-gradient);
      }

      .cls-1, .cls-2 {
        stroke-width: 0px;
      }

      .cls-2 {
        fill: #234c24;
      }
    </style>
    <linearGradient id="linear-gradient" x1="0" y1="45.95" x2="63.29" y2="45.95" gradientUnits="userSpaceOnUse">
      <stop offset="0" stop-color="#00883e"/>
      <stop offset="1" stop-color="#6fbe44"/>
    </linearGradient>
  </defs>
  <g id="Layer_1-2" data-name="Layer 1">
    <g>
      <g>
        <path class="cls-2" d="M85.71,63.13c0-1.21.6-2.14,1.87-3.13.99-.88,1.54-2.2,1.54-4.88v-17.72c0-3.13-.66-4.39-1.65-5.32-1.15-1.1-1.76-1.87-1.76-2.96,0-2.03,1.48-3.35,6.58-3.35h10.32c9.6,0,14.21,5.16,14.21,13.44,0,7.63-5.38,13.94-12.18,13.94-3.46,0-5.16-2.3-6.31-2.3-.44,0-.66.27-.66.88v4.5c0,1.98.71,3.13,1.81,3.9,1.37.99,1.92,1.81,1.92,2.96,0,2.09-1.76,3.68-7.85,3.68-5.54,0-7.85-1.54-7.85-3.62ZM107.98,39.37c0-5.21-2.63-8.4-6.91-8.4-2.74,0-3.4.82-3.4,2.8v11.47c0,1.87,2.14,2.96,4.34,2.96,3.62,0,5.98-3.18,5.98-8.83Z"/>
        <path class="cls-2" d="M148.6,60.44c0,2.74-2.8,6.31-6.86,6.31-3.24,0-5.27-2.14-5.27-6.2,0-.71.06-1.43.11-1.98l-.49-.11c-1.1,5.6-4.99,8.29-9.27,8.29-4.94,0-8.67-3.35-8.67-8.83,0-6.37,4.83-8.94,11.19-8.94,2.08,0,4.33.22,6.26.66.05-.6.11-1.59.11-2.25,0-4.23-1.54-5.82-5.16-5.82-3.18,0-5.1,1.98-5.76,5.43-.11.49-.55.66-1.21.66-2.09,0-4.44-1.81-4.44-4.06,0-4.22,4.5-7.74,12.68-7.74,9.22,0,12.57,4.55,12.57,10.26,0,2.91-.44,5.98-.44,8.45,0,3.4,1.1,4.44,2.36,4.44.49,0,.88-.16,1.26-.16.6,0,1.04.66,1.04,1.59ZM135.53,53.25v-.33c-.93-.22-2.25-.33-3.24-.33-4.33,0-5.82,1.76-5.82,4.39,0,2.36,1.37,4.12,3.62,4.12,3.07,0,5.43-2.8,5.43-7.85Z"/>
        <path class="cls-2" d="M152.38,53.42c0-3.13.11-6.7.38-9.38l-3.51-.11c-1.26-.05-1.7-.49-1.7-1.37,0-3.29,9.11-12.89,12.62-12.89.82,0,1.1.49,1.1,1.59,0,2.14-.11,5.1-.22,6.53,5.6,0,8.07,2.96,8.07,5.27,0,.77-.44,1.1-1.15,1.1-1.76,0-5.49-.05-7.19-.11-.06,1.43-.16,3.18-.16,5.27,0,7.24,1.26,9.49,3.4,9.49,1.92,0,3.46-2.08,4.17-4.61.39-1.15.6-1.54.99-1.54.66,0,1.48,1.59,1.48,3.57,0,5.32-3.79,10.54-9.44,10.54-6.09,0-8.83-4.88-8.83-13.33Z"/>
        <path class="cls-2" d="M205.45,62.14c0,2.58-2.69,4.61-7.24,4.61-4.01,0-5.76-1.59-5.76-4.77,0-3.35.82-10.43.82-14.1,0-3.24-1.37-4.88-4.01-4.88-2.47,0-4.72,1.65-5.65,3.84v11.41c0,1.43.55,1.87,1.87,2.41,1.37.71,1.87,1.32,1.87,2.3,0,2.58-2.47,3.79-7.74,3.79s-7.9-1.21-7.9-3.57c0-1.15.55-1.7,1.98-2.47.99-.49,1.98-.99,1.98-2.41v-24.47c0-1.48-.55-1.98-2.09-2.25-1.59-.33-2.08-.77-2.08-1.98,0-2.74,3.07-4.39,7.57-4.39,3.95,0,5.21,1.59,5.21,4.01,0,2.19-.66,4.44-.66,9v4.44c1.92-3.95,5.1-6.8,9.66-6.8,5.76,0,8.29,3.73,8.29,9,0,4.55-.33,10.64-.33,13.83,0,.99.66,1.37,1.98,1.54,1.37.16,2.25.49,2.25,1.92Z"/>
        <path class="cls-2" d="M213.79,62.8c-1.65-3.84-5.76-14.49-6.86-17.72-.6-1.65-1.48-2.47-2.3-2.96-1.26-.77-1.7-1.54-1.7-2.85,0-2.25,2.52-3.4,7.3-3.4,5.38,0,7.46.99,7.46,3.02,0,.88-.44,1.48-1.26,2.03-.77.55-1.15,1.04-1.15,1.81,0,.82.49,2.3.77,3.35,1.04,3.46,2.53,7.79,4.77,13.99,1.43-4.28,2.63-8.4,4.17-13.72.22-.93.44-1.92.44-2.74,0-.99-.55-1.81-1.48-2.3-.82-.49-1.59-.99-1.59-2.3,0-2.14,2.03-3.13,6.58-3.13s6.64,1.1,6.64,3.07c0,.88-.27,1.32-.99,1.87-.88.66-1.26,1.21-1.26,2.19,0,.77.16,1.59.6,2.8,1.15,3.62,2.36,7.57,4.55,14.27,1.81-4.77,3.4-9.82,4.94-14.76.16-.77.33-1.59.33-2.25,0-.88-.39-1.54-1.15-1.87-1.26-.49-1.98-1.21-1.98-2.36,0-1.87,2.03-2.96,6.2-2.96s6.2,1.1,6.2,2.91c0,1.26-.33,2.03-1.48,2.85-.99.82-1.87,1.65-2.36,3.07-1.15,3.07-4.72,12.84-6.47,17.61-1.15,3.24-2.52,4.44-5.43,4.44-3.24,0-4.66-1.21-5.6-4.17-1.1-3.29-2.25-6.97-3.73-11.47l-3.4,11.25c-.99,3.18-2.58,4.39-5.27,4.39-2.85,0-4.28-1.04-5.49-3.95Z"/>
        <path class="cls-2" d="M283.65,60.44c0,2.74-2.8,6.31-6.86,6.31-3.24,0-5.27-2.14-5.27-6.2,0-.71.06-1.43.11-1.98l-.49-.11c-1.1,5.6-4.99,8.29-9.27,8.29-4.94,0-8.67-3.35-8.67-8.83,0-6.37,4.83-8.94,11.19-8.94,2.08,0,4.33.22,6.26.66.05-.6.11-1.59.11-2.25,0-4.23-1.54-5.82-5.16-5.82-3.18,0-5.1,1.98-5.76,5.43-.11.49-.55.66-1.21.66-2.09,0-4.44-1.81-4.44-4.06,0-4.22,4.5-7.74,12.68-7.74,9.22,0,12.57,4.55,12.57,10.26,0,2.91-.44,5.98-.44,8.45,0,3.4,1.1,4.44,2.36,4.44.49,0,.88-.16,1.26-.16.6,0,1.04.66,1.04,1.59ZM270.59,53.25v-.33c-.93-.22-2.25-.33-3.24-.33-4.33,0-5.82,1.76-5.82,4.39,0,2.36,1.37,4.12,3.62,4.12,3.07,0,5.43-2.8,5.43-7.85Z"/>
        <path class="cls-2" d="M305.22,66.48c-.77-.71-1.21-.99-1.92-.99-1.21,0-6.8.82-13.33.82-2.91,0-4.22-1.15-4.22-3.18,0-1.32.6-2.69,1.81-4.44,1.37-2.03,6.04-8.4,10.97-14.32,1.04-1.26,1.7-2.41,1.7-3.24,0-.99-.88-1.59-2.36-1.59-2.47,0-4.61,1.76-6.47,4.22-2.25,3.24-3.46,4.83-4.55,4.83-.99,0-1.48-1.32-1.48-3.46,0-5.38,2.36-10.81,4.77-10.81.66,0,1.21.49,1.54,1.1.44.77,1.04,1.1,2.3,1.1,7.57,0,12.62-.66,14.32-.66,1.59,0,2.69,1.26,2.69,3.07,0,1.26-.6,2.47-1.59,3.68-2.14,2.8-4.06,5.27-5.76,7.41-4.66,5.93-7.57,9.6-7.57,10.54,0,.49.77.82,2.3.82,3.46,0,6.7-1.54,8.62-4.39,2.3-3.24,3.18-4.12,4.06-4.12s1.43,1.21,1.43,3.13c0,5.27-2.91,11.41-5.38,11.41-.66,0-1.1-.27-1.87-.93Z"/>
        <path class="cls-2" d="M341.11,58.25c0,4.44-4.94,8.5-12.24,8.5s-14.1-4.94-14.1-15.03c0-8.51,5.65-15.86,14.65-15.86,7.13,0,12.18,4.28,12.18,12.13,0,1.98-.27,3.51-.55,4.66l-17.72.16c.38,5.38,4.22,7.3,7.35,7.3,3.62,0,6.75-2.41,8.01-3.9.6-.66.82-.93,1.15-.93.66,0,1.26,1.21,1.26,2.96ZM323.28,49.3l10.26-.6c.05-.38.11-.82.11-1.37,0-4.44-2.08-6.58-4.55-6.58-3.18,0-5.65,3.29-5.82,8.56Z"/>
      </g>
      <g>
        <path class="cls-1" d="M63.29,45.95c0,17.48-14.17,31.65-31.65,31.65-1.69,0-3.35-.13-4.97-.39-.05-.29-.09-.58-.13-.88-.13-1.07-1.11-1.84-2.18-1.7-.9.11-1.59.81-1.71,1.67C9.55,72.42,0,60.3,0,45.95,0,28.47,14.16,14.3,31.64,14.3c.65,0,1.29.02,1.93.06.34.63.99,1.05,1.74,1.05.06,0,.12,0,.17,0,.54-.05,1-.3,1.32-.68,15.02,2.46,26.49,15.51,26.49,31.22Z"/>
        <path class="cls-2" d="M29.15.11c-.47-.07-.96-.11-1.46-.11-2.1,0-4.22.64-5.93,1.81-.89.6-1.13,1.82-.52,2.72.38.56.99.86,1.62.86.38,0,.77-.11,1.1-.34,1.06-.72,2.42-1.13,3.73-1.13.3,0,.59.02.87.06,1.07.16,2.07-.56,2.23-1.64.16-1.06-.56-2.07-1.64-2.23Z"/>
        <path class="cls-2" d="M43.31,81.34c.09,1.07-.71,2.02-1.78,2.11-.05,0-.11,0-.16,0-1.01,0-1.86-.77-1.95-1.79-.07-.81-.28-1.61-.63-2.39,0,0,0-.02,0-.03,1.3-.27,2.57-.63,3.8-1.05.39,1.02.64,2.07.73,3.15Z"/>
        <path class="cls-2" d="M39.84,87.3c-.44-.99-1.6-1.43-2.58-.99-.5.22-1.09.33-1.76.33-1.14,0-2.15-.32-2.57-.45-.12-.04-.23-.07-.34-.12-1.01-.38-2.14.14-2.52,1.15-.38,1.01.14,2.14,1.15,2.52.17.06.34.13.57.2.49.15,1.96.62,3.71.62,1.22,0,2.34-.23,3.34-.66.99-.44,1.43-1.59,1-2.58Z"/>
        <path class="cls-2" d="M26.15,60.59c-1.06-.2-2.09.49-2.3,1.54-.31,1.53-.59,3.11-.85,4.72-.06.4-.15.95-.23,1.61-.13,1.07.62,2.05,1.69,2.19.09,0,.17.02.26.02.96,0,1.81-.72,1.93-1.71.08-.62.16-1.12.22-1.49.25-1.56.53-3.1.82-4.59.21-1.06-.48-2.09-1.53-2.3Z"/>
        <path class="cls-2" d="M29.94,46.98c-1.03-.34-2.14.23-2.46,1.26-.71,2.22-1.29,4.16-1.82,6.11-.28,1.05.34,2.12,1.38,2.4.17.05.34.07.51.07.86,0,1.65-.58,1.89-1.45.51-1.89,1.07-3.78,1.77-5.94.33-1.02-.23-2.13-1.26-2.46Z"/>
        <path class="cls-2" d="M33.99,33.43c-1.06-.26-2.11.39-2.36,1.44-.44,1.82-.95,3.65-1.67,5.91-.34,1.02.23,2.13,1.26,2.46.2.06.4.09.6.09.82,0,1.6-.52,1.86-1.36.75-2.36,1.3-4.26,1.75-6.18.26-1.05-.39-2.1-1.44-2.36Z"/>
        <path class="cls-2" d="M35.51,19.37c-1.09-.05-2,.78-2.05,1.86-.13,2.87-.41,5.24-.52,6.13-.13,1.07.65,2.05,1.72,2.18.08,0,.15,0,.23,0,.98,0,1.82-.74,1.94-1.73.11-.93.39-3.4.54-6.41.05-1.07-.78-2-1.86-2.04Z"/>
        <path class="cls-2" d="M37.26,13.29c.05.54-.13,1.05-.45,1.43s-.78.63-1.32.68c-.06,0-.12,0-.17,0-.74,0-1.4-.42-1.74-1.05-.11-.23-.19-.47-.21-.74-.05-.59-.11-1.15-.19-1.69-.21-1.54-.51-2.88-.9-4.01-.36-1.02.18-2.14,1.21-2.49,1.01-.35,2.13.19,2.49,1.21.56,1.6.95,3.51,1.2,5.7.03.31.06.63.09.95Z"/>
        <path class="cls-2" d="M22.21,13.22c-1.21.35-2.4.77-3.55,1.24-.09-.13-.17-.28-.23-.44-.14-.38-.6-1.8-.7-3.62-.06-1.08.77-2,1.85-2.06,1.1-.05,2,.77,2.06,1.85.07,1.35.43,2.39.47,2.5.06.17.1.35.1.52Z"/>
        <path class="cls-2" d="M27.25,84.31c-.29.15-.59.22-.9.22-.7,0-1.39-.38-1.74-1.06-.7-1.36-1.24-2.9-1.6-4.58-.14-.67-.27-1.37-.35-2.1-.02-.17-.02-.34,0-.5.12-.86.81-1.56,1.71-1.67,1.07-.14,2.05.63,2.18,1.7.04.31.08.59.13.88.14.9.34,1.74.6,2.51.22.7.49,1.35.81,1.96.49.96.12,2.14-.84,2.64Z"/>
      </g>
    </g>
  </g>
</svg>