<?xml version="1.0" encoding="UTF-8"?><svg id="Layer_2" xmlns="http://www.w3.org/2000/svg" viewBox="0 0 571.31 98.63"><g id="Layer_1-2"><path d="m105.63,73.18c-17.68,5.2-28.33-17.07-36.38-29.2-2.28-3.91-4-7.66-5.86-10.93,0,0,0,0,0-.01-7.61-17.17-8.76-19.68-9.04-20.03,0,0,0,0,0,0C46.99-3.79,18.32-5.07,11.93,13.61c-15.83,6.89-14.7,6.42-3.7,13.36C-1.09,39.49-.22,55.63,11.5,74.01c10.49,16.1,31.12,24.57,50.73,24.62,19.83-.57,31-8.02,37.44-14.26,2.33-2.25,5.33-6.99,7.01-9.81.44-.72-.24-1.62-1.05-1.38ZM39.62,40.3c-3.57,0-3.56-5.54,0-5.54s3.57,5.54,0,5.54Zm-26.86-12.42c.86-.9.66-2.46-.39-3.12l-6.22-4.01c1.93-.96,4.71-2.27,8.11-3.67.45-.05,1.06-.79,1.12-1.11C19.05,2.16,40.64.14,48.43,11.74c.59.99,1.23,1.96,1.89,2.87,0,0,0,0,0,0h0c.08.1,1.04,1.88,4.45,9.37h0c-2.87-1.41-6.51-2.14-11.43-1.95-4.03.25-9.57,2.09-13.39,9.17l-9.55,4.73c-1.34.64-1.51,2.61-.3,3.48l5.27,3.91c-3.28,5.26-4.98,10.87-4.98,16.66,0,9.16,4.27,18.76,13.36,28.11C11.28,78.49-2.8,42.67,12.76,27.88Zm86.99,50.18c-4.29,4.57-18.94,18-41.47,16.32-3.68-.28-8.53-.57-10.79-1.76-10.83-4.97-10.66-23.72-4.32-29.69,2.68-2.85-3.56-4.82-5.08-6.07h0c1.42-1.22,5.92-1.91,7.32-4.31,3.67-12.98,17.27-11.16,22.34-3.07,7.36,10.76,16.61,28.23,32,28.57h0Z" style="fill:#7ebf42;"/><path d="m25.61,14.47c-3.56,0-3.57,5.54,0,5.54s3.57-5.54,0-5.54Z" style="fill:#7ebf42;"/><path d="m53.22,54.83c-3.56,0-3.57,5.54,0,5.54s3.57-5.54,0-5.54Z" style="fill:#7ebf42;"/><path d="m54.17,82.02c-1.32-3.57,1.21-7.27,4.45-8.32,1.68-.54,2.65-.42,4.45.23.22.08.44.17.66.25-1.19-1.33-2.28-4.13-2.26-5.82.05-3.53,3.85-6.6,7.64-6.27,4.28.37,7.4,5.42,8.6,9.09,1.52,4.66,2.81,7.83,6.25,12,.56.68-2.23,1.7-2.36,1.4-.04-.09-.02-.65-.49-1.18-1.69-1.89-4.22-5.55-5.12-8.38-.95-2.98-2.58-8.99-5.33-10.48-1.34-.73-3.35-.78-4.77.24-1.16.82-1.93,2.18-1.94,3.77-.01,3.38,2.39,7.29,2.1,7.35-1.43.3-3.59-1.21-7.07.02-2.16.76-3.7,4.59-.89,7.42,4.4,4.94,15.31.57,22.97.08.16-.01,1.97.81,1.84.92-.55.45-16.08,4.32-20.84,3.57-4.21-.66-6.41-1.86-7.89-5.88Z" style="fill:#7ebf42;"/><path d="m473.52,74.66c.96.35,6.59-1.42,6.59-1.42-1.63.74-3.39,5.57-7.01,6.79-7.31,2.46-13.35,3.41-13.35,3.41,2.59,1.55,13.59-2,13.59-2-5.66,3.52-17.53,12.42-25.97,5.25.85,1.21,3.04,4.14,6.39,4.6-4.57.17-7.32-2.68-8.46-4.2,12.87-3.28,23.56-13.14,32-22.9.42-.42.56-.79.1-.66,0,0-.56.53-1.53,1.47-9.01,8.36-19.2,17.06-31.34,20.38-.9-4.94,1.2-8.6,3.78-10.1-2.6,3.17-2.22,8.07-2.2,8.32,1.05-6.61,2.23-8.74,9.68-13.27-1.28,1.57-2.26,4.32-2.02,7.15,3.95-8.12,7.89-12.47,14.53-15.96-2.7,3.51-1.64,8.65-1.64,8.65,1.21-4.02.36-7.17,3.9-8.77,3.54-1.59,7.26-.91,9.17-1.85,1.81,8.5,1.88,11.58-6.19,15.12Z" style="fill:#d1bcdb;"/><path d="m445.29,87.09c-2.74.58-5.68.65-8.37-.09-.39-.18-1.77-.38-1.12-.73,2.85.21,5.92-.11,8.72-.89.04.26.36,1.16.77,1.71Z" style="fill:#d1bcdb;"/><path d="m168.47,10.3h-38.7l-.49,10.87h1.92c.04-2.01.31-3.56.82-4.67.51-1.1,1.18-1.92,2-2.47.82-.54,1.78-.87,2.87-.99,1.08-.11,2.22-.17,3.41-.17,1.08,0,1.97.03,2.64.07.68.05,1.2.14,1.56.25.36.12.6.27.71.47.12.2.18.45.18.74v25.9c0,1.06-.08,1.96-.22,2.72-.15.76-.47,1.37-.94,1.85-.48.48-1.17.84-2.05,1.09-.89.25-2.08.39-3.56.42v1.98h20.71v-1.98c-1.45-.03-2.62-.17-3.51-.42s-1.57-.61-2.03-1.09c-.46-.48-.77-1.09-.91-1.85-.15-.76-.23-1.66-.23-2.72V14.4c0-.29.07-.54.2-.74s.4-.35.82-.47c.41-.11,1-.2,1.78-.25.77-.04,1.8-.07,3.08-.07s2.48.12,3.46.37c.99.25,1.83.69,2.52,1.34.7.64,1.23,1.5,1.61,2.57s.62,2.41.72,4.02h2.12l-.49-10.87Z" style="fill:#272623;"/><path d="m200.79,46.08c-.56-.13-.98-.4-1.26-.81-.28-.41-.45-1.01-.52-1.78-.06-.77-.1-1.85-.1-3.24v-7.66c0-1.51-.24-2.97-.74-4.37-.49-1.4-1.17-2.6-2.02-3.59-1.78-1.97-4.29-2.96-7.52-2.96-1.78,0-3.3.31-4.57.94-1.27.62-2.41,1.61-3.43,2.96h-.2V7.34l-11.02,1.87v1.83c.72,0,1.32.03,1.8.08.48.05.86.14,1.14.29.28.15.48.35.62.6.13.24.24.58.34,1.01.13.59.22,1.46.27,2.59.05,1.14.08,2.7.08,4.67v20.32c0,1.25-.04,2.25-.13,2.99-.08.74-.27,1.31-.56,1.7-.3.4-.75.66-1.34.79-.59.14-1.38.23-2.37.3v1.98h15.57v-1.98c-.99-.07-1.77-.16-2.35-.3-.58-.13-1.01-.41-1.29-.84-.28-.43-.46-1.03-.54-1.8-.08-.77-.12-1.84-.12-3.19v-6.57c0-1.39.15-2.64.47-3.76.31-1.12.75-2.06,1.31-2.82,1.15-1.44,2.71-2.17,4.69-2.17,1.85,0,3.15.73,3.91,2.17.75,1.45,1.13,3.93,1.13,7.42v6.08c0,1.25-.04,2.25-.12,2.99-.08.74-.28,1.31-.59,1.7-.32.4-.76.67-1.34.82-.57.15-1.36.24-2.35.27v1.98h15.47v-1.98c-.98-.07-1.76-.16-2.32-.3Z" style="fill:#272623;"/><path d="m226,22.61c-.79-.63-1.82-.94-3.07-.94-1.61,0-3.14.51-4.59,1.53-1.45,1.02-2.62,2.41-3.51,4.15h-.2l-.79-5.68-9.89,1.83v1.73c.99,0,1.79.1,2.4.32.61.21,1.08.65,1.41,1.31.33.66.54,1.6.64,2.82.1,1.21.15,2.84.15,4.89v6.03c0,1.25-.04,2.25-.12,2.99-.09.74-.28,1.31-.57,1.7-.3.4-.74.66-1.34.79-.59.14-1.38.23-2.37.3v1.98h16.51v-1.98c-1.15,0-2.08-.06-2.77-.17-.69-.12-1.22-.37-1.58-.77-.36-.39-.6-.96-.72-1.7-.11-.75-.17-1.76-.17-3.04v-2.38c0-1.22.08-2.44.25-3.68.16-1.23.38-2.35.64-3.33.36-1.39.82-2.49,1.38-3.32.56-.82,1.16-1.23,1.78-1.23.33,0,.65.11.97.32.31.21.62.44.94.69.31.25.66.47,1.06.67.39.2.84.3,1.33.3,1.06,0,1.89-.37,2.5-1.09.61-.73.91-1.62.91-2.67,0-.96-.39-1.75-1.18-2.37Z" style="fill:#272623;"/><path d="m251.4,33.53c.76,0,1.22-.06,1.38-.17.17-.12.25-.44.25-.97,0-3.39-.97-6.03-2.91-7.9-1.95-1.88-4.67-2.82-8.16-2.82-2.08,0-3.98.34-5.71,1.04-1.73.69-3.23,1.65-4.5,2.89-1.26,1.23-2.24,2.7-2.94,4.4-.69,1.69-1.03,3.56-1.03,5.61s.32,3.77.98,5.38c.66,1.62,1.59,3.01,2.77,4.18,1.19,1.17,2.61,2.07,4.28,2.72,1.66.64,3.51.96,5.56.96,4.48,0,8.22-1.7,11.22-5.09l-1.39-1.73c-1.28,1.15-2.61,2.04-3.98,2.67-1.36.63-2.74.94-4.12.94-2.41,0-4.31-.94-5.71-2.82-1.4-1.88-2.1-4.43-2.1-7.66,0-.79.06-1.33.2-1.63h15.91Zm-13.42-7.24c1.1-1.17,2.37-1.76,3.78-1.76,1.25,0,2.29.47,3.12,1.39.82.92,1.23,2.11,1.23,3.56,0,.56-.19.91-.57,1.06-.38.15-1.22.22-2.54.22h-7.17c.33-1.81,1.05-3.3,2.15-4.47Z" style="fill:#272623;"/><path d="m279.23,33.53c.75,0,1.21-.06,1.38-.17.16-.12.25-.44.25-.97,0-3.39-.98-6.03-2.92-7.9-1.94-1.88-4.66-2.82-8.15-2.82-2.08,0-3.98.34-5.71,1.04-1.73.69-3.23,1.65-4.5,2.89-1.27,1.23-2.25,2.7-2.94,4.4-.69,1.69-1.04,3.56-1.04,5.61s.33,3.77.99,5.38c.66,1.62,1.58,3.01,2.77,4.18,1.18,1.17,2.61,2.07,4.27,2.72,1.67.64,3.52.96,5.56.96,4.48,0,8.22-1.7,11.22-5.09l-1.38-1.73c-1.29,1.15-2.61,2.04-3.98,2.67s-2.74.94-4.13.94c-2.4,0-4.31-.94-5.71-2.82-1.4-1.88-2.1-4.43-2.1-7.66,0-.79.07-1.33.2-1.63h15.92Zm-13.42-7.24c1.1-1.17,2.36-1.76,3.78-1.76,1.25,0,2.29.47,3.11,1.39.82.92,1.24,2.11,1.24,3.56,0,.56-.19.91-.57,1.06-.38.15-1.23.22-2.55.22h-7.16c.33-1.81,1.04-3.3,2.15-4.47Z" style="fill:#272623;"/><path d="m328.2,37.14c-.36,1.74-.8,3.16-1.33,4.25-.53,1.08-1.23,1.95-2.1,2.59-.88.65-1.95,1.08-3.24,1.31-1.28.23-2.88.35-4.79.35-1.72,0-3.15-.09-4.3-.27-1.16-.18-2.08-.51-2.77-.99-.69-.48-1.18-1.16-1.46-2.03-.28-.87-.42-2-.42-3.38v-20.71c0-1.25.06-2.26.17-3.02.12-.75.36-1.35.72-1.78.36-.42.88-.72,1.56-.89.67-.16,1.57-.26,2.69-.29v-1.98h-17.05v1.98c.99.06,1.79.17,2.4.32.61.15,1.08.43,1.41.84.32.41.55.97.66,1.68.12.71.18,1.64.18,2.79v22.84c0,1.15-.07,2.09-.2,2.81-.13.73-.38,1.29-.74,1.68-.37.4-.89.68-1.58.84-.7.17-1.59.27-2.67.3v1.98h34.05l.79-11.22h-1.98Z" style="fill:#272623;"/><path d="m344.56,46.11c-.56-.15-.99-.44-1.28-.87-.3-.43-.5-1.03-.6-1.83-.1-.79-.14-1.84-.14-3.16v-18.58l-11.47,1.88v1.68c1.51,0,2.56.13,3.14.39.57.27.94.81,1.11,1.63.1.47.18,1.31.25,2.55.06,1.23.1,2.81.1,4.72v6.08c0,1.15-.06,2.1-.18,2.84-.11.74-.33,1.32-.64,1.73-.31.41-.76.71-1.33.89-.58.18-1.33.29-2.25.32v1.98h15.56v-1.98c-.95-.03-1.71-.12-2.27-.27Zm-2.74-37.66c-.74-.74-1.66-1.11-2.74-1.11s-1.96.37-2.7,1.11-1.11,1.65-1.11,2.74.37,1.95,1.11,2.69c.74.75,1.64,1.12,2.7,1.12s2-.37,2.74-1.12c.74-.74,1.11-1.64,1.11-2.69s-.37-2-1.11-2.74Z" style="fill:#272623;"/><path d="m364.13,43.91c-.66,1.19-1.63,1.78-2.91,1.78-1.06,0-1.81-.43-2.25-1.29-.45-.85-.67-2.3-.67-4.35v-15.17h5.68v-2.72h-5.68v-5.98h-2.52c-.66,1.48-1.66,2.79-2.99,3.93-1.33,1.14-2.99,1.99-4.97,2.55v2.22h3.61v17.94c0,1.91.63,3.4,1.9,4.45,1.27,1.05,3.04,1.58,5.32,1.58,3.42,0,5.6-1.17,6.52-3.51l-1.04-1.43Z" style="fill:#272623;"/><path d="m381.92,43.91c-.65,1.19-1.63,1.78-2.91,1.78-1.06,0-1.81-.43-2.25-1.29-.45-.85-.67-2.3-.67-4.35v-15.17h5.69v-2.72h-5.69v-5.98h-2.52c-.66,1.48-1.65,2.79-2.99,3.93-1.33,1.14-2.99,1.99-4.97,2.55v2.22h3.61v17.94c0,1.91.64,3.4,1.91,4.45,1.26,1.05,3.04,1.58,5.31,1.58,3.43,0,5.6-1.17,6.52-3.51l-1.04-1.43Z" style="fill:#272623;"/><path d="m396.41,46.11c-.57-.15-.99-.44-1.29-.87-.3-.43-.49-1.03-.59-1.83-.1-.79-.15-1.84-.15-3.16V7.34l-11.47,1.87v1.68c1.52,0,2.56.14,3.14.4.58.26.95.81,1.11,1.63.1.46.18,1.31.25,2.55.07,1.23.1,2.8.1,4.71v20.42c0,1.15-.06,2.1-.17,2.84-.12.74-.33,1.32-.65,1.73-.31.41-.75.71-1.33.89-.58.18-1.33.29-2.25.32v1.98h15.57v-1.98c-.96-.03-1.71-.12-2.27-.27Z" style="fill:#272623;"/><path d="m424.13,33.53c.76,0,1.22-.06,1.39-.17.16-.12.24-.44.24-.97,0-3.39-.97-6.03-2.91-7.9-1.95-1.88-4.67-2.82-8.16-2.82-2.07,0-3.98.34-5.71,1.04-1.73.69-3.23,1.65-4.49,2.89-1.27,1.23-2.25,2.7-2.95,4.4-.69,1.69-1.03,3.56-1.03,5.61s.33,3.77.99,5.38c.65,1.62,1.58,3.01,2.76,4.18,1.19,1.17,2.61,2.07,4.28,2.72,1.66.64,3.52.96,5.56.96,4.48,0,8.22-1.7,11.22-5.09l-1.39-1.73c-1.28,1.15-2.61,2.04-3.97,2.67-1.37.63-2.75.94-4.13.94-2.41,0-4.31-.94-5.71-2.82s-2.1-4.43-2.1-7.66c0-.79.06-1.33.2-1.63h15.91Zm-13.42-7.24c1.11-1.17,2.37-1.76,3.78-1.76,1.26,0,2.29.47,3.12,1.39.82.92,1.23,2.11,1.23,3.56,0,.56-.19.91-.57,1.06-.37.15-1.22.22-2.54.22h-7.17c.33-1.81,1.05-3.3,2.15-4.47Z" style="fill:#272623;"/><path d="m475.14,34.22c-.56-1.25-1.36-2.34-2.38-3.26s-2.26-1.64-3.73-2.15c-1.46-.51-3.1-.77-4.92-.77v-.19c5.64-1.62,8.46-4.39,8.46-8.31,0-2.96-1.35-5.24-4.03-6.84-2.69-1.6-6.52-2.4-11.49-2.4h-15.87v1.98c.89.06,1.61.17,2.15.32.55.15.97.43,1.29.84.31.41.52.97.61,1.68.1.71.15,1.64.15,2.79v22.84c0,1.15-.06,2.09-.19,2.81-.14.73-.39,1.29-.77,1.68-.38.4-.91.68-1.58.84-.68.17-1.58.27-2.7.3v1.98h19.03c5.14,0,9.18-.83,12.11-2.47,1.52-.86,2.68-1.92,3.49-3.17.8-1.25,1.21-2.72,1.21-4.4,0-1.48-.28-2.85-.84-4.1Zm-22.49-20.06c0-.56.29-.84.89-.84h3.51c2.63,0,4.54.53,5.73,1.6,1.19,1.07,1.78,2.81,1.78,5.22s-.79,4-2.37,5.09c-.76.52-1.68.93-2.77,1.21-1.09.28-2.37.42-3.86.42h-2.91v-12.7Zm6.87,31.18c-2.47,0-4.24-.43-5.29-1.28-1.06-.86-1.58-2.31-1.58-4.35v-9.89h2.37c2.27,0,4.19.15,5.76.45,1.56.29,2.84.79,3.83,1.48,1.91,1.35,2.87,3.49,2.87,6.43,0,4.77-2.66,7.16-7.96,7.16Z" style="fill:#272623;"/><path d="m491.54,46.11c-.56-.15-.98-.44-1.28-.87-.3-.43-.49-1.03-.59-1.83-.1-.79-.15-1.84-.15-3.16v-18.58l-11.47,1.88v1.68c1.52,0,2.56.13,3.14.39.58.27.95.81,1.11,1.63.1.47.18,1.31.25,2.55.07,1.23.1,2.81.1,4.72v6.08c0,1.15-.06,2.1-.17,2.84-.12.74-.33,1.32-.65,1.73-.31.41-.76.71-1.33.89-.58.18-1.33.29-2.25.32v1.98h15.57v-1.98c-.96-.03-1.72-.12-2.28-.27Zm-2.74-37.66c-.74-.74-1.65-1.11-2.74-1.11s-1.95.37-2.69,1.11c-.75.74-1.12,1.65-1.12,2.74s.37,1.95,1.12,2.69c.74.75,1.63,1.12,2.69,1.12s2-.37,2.74-1.12c.74-.74,1.11-1.64,1.11-2.69s-.37-2-1.11-2.74Z" style="fill:#272623;"/><path d="m516.9,22.61c-.79-.63-1.81-.94-3.07-.94-1.61,0-3.14.51-4.59,1.53s-2.62,2.41-3.51,4.15h-.2l-.79-5.68-9.88,1.83v1.73c.98,0,1.78.1,2.39.32.61.21,1.08.65,1.41,1.31.33.66.54,1.6.64,2.82.1,1.21.15,2.84.15,4.89v6.03c0,1.25-.04,2.25-.12,2.99-.08.74-.27,1.31-.57,1.7-.3.4-.74.66-1.33.79-.6.14-1.39.23-2.38.3v1.98h16.51v-1.98c-1.15,0-2.08-.06-2.77-.17-.69-.12-1.22-.37-1.58-.77-.36-.39-.6-.96-.72-1.7-.11-.75-.17-1.76-.17-3.04v-2.38c0-1.22.08-2.44.25-3.68.16-1.23.38-2.35.64-3.33.36-1.39.82-2.49,1.39-3.32.55-.82,1.15-1.23,1.77-1.23.33,0,.65.11.97.32.31.21.62.44.94.69.31.25.66.47,1.06.67.4.2.84.3,1.33.3,1.06,0,1.89-.37,2.5-1.09.61-.73.91-1.62.91-2.67,0-.96-.39-1.75-1.18-2.37Z" style="fill:#272623;"/><path d="m548.31,46.31c-.45-.05-.8-.15-1.07-.3-.26-.15-.46-.35-.59-.62-.13-.26-.23-.61-.3-1.04-.13-.69-.22-1.7-.27-3.04-.05-1.33-.07-3.23-.07-5.7V7.34l-12.51,1.97v1.68c1.75,0,3.04.16,3.88.47.84.32,1.35.82,1.51,1.51.1.43.17,1.34.22,2.74s.08,3.08.08,5.02v4.2h-.2c-.96-1.19-2.07-2.03-3.34-2.52-1.26-.49-2.72-.74-4.37-.74-1.78,0-3.43.34-4.97,1.04-1.53.69-2.85,1.65-3.95,2.89-1.11,1.23-1.98,2.69-2.62,4.37s-.96,3.51-.96,5.49.31,3.78.94,5.41c.62,1.63,1.5,3.04,2.64,4.23,1.14,1.18,2.49,2.1,4.05,2.76,1.57.66,3.29.99,5.17.99,3.62,0,6.57-1.22,8.84-3.66h.2v3.66l9.39-.54v-1.93c-.69,0-1.26-.03-1.7-.07Zm-9.22-10.21c0,1.68-.11,3.06-.32,4.13-.22,1.07-.55,1.97-1.02,2.69-.62.96-1.43,1.71-2.42,2.27s-2.02.84-3.11.84c-1.91,0-3.38-.92-4.4-2.76-1.02-1.85-1.53-4.48-1.53-7.91s.51-5.98,1.53-7.76c1.02-1.78,2.5-2.67,4.45-2.67,1.05,0,2.04.25,2.96.74.93.5,1.68,1.22,2.28,2.18.52.82.92,1.77,1.18,2.84.27,1.07.4,2.23.4,3.48v1.93Z" style="fill:#272623;"/><path d="m570.89,38.79c-.28-.77-.71-1.51-1.31-2.22-.59-.71-1.36-1.41-2.32-2.1-.96-.69-2.09-1.4-3.41-2.13-1.88-.99-3.22-1.89-4.03-2.71-.81-.83-1.21-1.7-1.21-2.62,0-.83.27-1.49.82-1.98.54-.5,1.27-.74,2.2-.74,1.15,0,2.13.41,2.94,1.23.8.83,1.59,2.18,2.34,4.06h1.93v-7.47h-1.28l-.89,1.19c-.76-.53-1.64-.94-2.65-1.24-1-.29-2.02-.44-3.04-.44-1.15,0-2.22.19-3.21.57s-1.84.91-2.54,1.6c-.71.7-1.27,1.51-1.69,2.45-.41.94-.61,1.95-.61,3.04,0,1.68.54,3.19,1.63,4.52,1.09,1.34,2.88,2.68,5.39,4.03,1.84.99,3.17,1.92,4,2.79.82.88,1.23,1.77,1.23,2.7s-.33,1.59-1.01,2.1c-.67.51-1.62.76-2.84.76-1.68,0-3.05-.54-4.1-1.63-1.06-1.09-1.86-2.82-2.42-5.19h-2.08v9h1.53l1.09-1.73c.79.72,1.79,1.27,3.01,1.65,1.22.38,2.54.57,3.96.57s2.58-.18,3.68-.54c1.1-.36,2.05-.88,2.84-1.54.79-.65,1.4-1.44,1.83-2.37.43-.92.64-1.96.64-3.11,0-.89-.14-1.72-.42-2.5Z" style="fill:#272623;"/><path d="m143.84,67.02c-.55-.94-1.36-1.67-2.44-2.2-1.09-.54-2.43-.8-4.04-.8h-7.31v20.83h2.07v-8.42h5.28c.3,0,.59,0,.87-.03.78-.05,1.49-.17,2.12-.36.36-.11.7-.24,1.01-.39,1.08-.53,1.89-1.25,2.44-2.18s.82-2,.82-3.22-.27-2.29-.82-3.23Zm-1.79,5.59c-.39.67-.98,1.18-1.76,1.54-.79.36-1.77.54-2.95.54h-5.22v-8.96h5.19c1.19,0,2.18.18,2.97.56.78.37,1.37.9,1.76,1.58.39.68.59,1.47.59,2.38s-.19,1.7-.58,2.36Zm-1.66,3.43l-.35-.59h-2.33l.56.95,4.96,8.45h2.39l-5.23-8.81Z" style="fill:#272623;"/><path d="m162.88,76.68c0-1.3-.2-2.44-.59-3.4-.4-.96-.94-1.76-1.63-2.39-.68-.63-1.45-1.11-2.3-1.41-.86-.31-1.75-.47-2.67-.47-1.47,0-2.76.35-3.88,1.04-1.11.7-1.99,1.66-2.62,2.88-.63,1.23-.94,2.63-.94,4.2s.31,2.98.94,4.19c.63,1.21,1.53,2.16,2.69,2.84,1.15.68,2.53,1.02,4.11,1.02,1.14,0,2.14-.17,3.02-.5.87-.34,1.6-.79,2.19-1.34.58-.56,1-1.16,1.26-1.82l-1.87-.56c-.21.47-.53.89-.94,1.29-.42.39-.93.7-1.54.93-.61.23-1.32.34-2.12.34-1.18,0-2.2-.25-3.06-.76-.87-.51-1.53-1.23-2-2.15-.44-.87-.67-1.88-.7-3.03h12.65v-.9Zm-12.64-.7c.06-.87.29-1.68.69-2.43.46-.87,1.1-1.57,1.92-2.1.82-.52,1.77-.79,2.84-.79s1.92.23,2.7.7c.77.47,1.38,1.11,1.82,1.91s.66,1.71.66,2.71h-10.63Z" style="fill:#272623;"/><path d="m177.8,78.03c-.71-.69-1.78-1.2-3.2-1.52l-2.57-.58c-1.05-.24-1.83-.57-2.34-.99-.5-.42-.76-.96-.76-1.63,0-.8.37-1.45,1.11-1.95.74-.5,1.68-.75,2.83-.75.77,0,1.41.11,1.93.34.52.22.94.52,1.27.9.32.38.57.81.75,1.27l1.8-.46c-.41-1.14-1.08-2.03-2.02-2.68-.93-.64-2.17-.97-3.73-.97-1.14,0-2.16.19-3.05.56-.89.38-1.59.89-2.1,1.54-.51.66-.77,1.42-.77,2.28,0,1.04.36,1.92,1.07,2.62.7.71,1.79,1.22,3.27,1.55l2.78.61c.93.2,1.62.52,2.08.95.45.43.68.96.68,1.59,0,.82-.39,1.49-1.17,2.03-.78.54-1.83.81-3.13.81-1.17,0-2.11-.24-2.82-.71-.71-.47-1.19-1.18-1.43-2.11l-1.89.43c.3,1.3.99,2.3,2.07,2.99,1.07.69,2.44,1.03,4.1,1.03,1.25,0,2.34-.19,3.29-.58.95-.39,1.69-.93,2.22-1.62.53-.68.8-1.47.8-2.35,0-1.04-.36-1.91-1.07-2.6Z" style="fill:#272623;"/><path d="m185.25,64.32c-.29-.26-.64-.39-1.04-.39s-.74.13-1.03.39c-.3.25-.44.56-.44.92s.14.66.43.92c.29.25.63.38,1.04.38s.74-.13,1.03-.38c.3-.26.44-.56.44-.92s-.14-.67-.43-.92Zm-2.05,4.91v15.62h1.98v-15.62h-1.98Z" style="fill:#272623;"/><path d="m201.92,64.02v8.19h-.18c-.23-.47-.55-.95-.96-1.45-.41-.49-.96-.91-1.65-1.24-.68-.34-1.54-.51-2.58-.51-1.4,0-2.62.34-3.68,1.01-1.05.68-1.87,1.62-2.46,2.83-.59,1.21-.88,2.62-.88,4.23s.29,3.03.88,4.24c.59,1.22,1.4,2.16,2.45,2.84,1.05.68,2.27,1.02,3.66,1.02,1.03,0,1.9-.17,2.58-.51.69-.34,1.25-.76,1.67-1.25.42-.5.74-.99.97-1.46h.24v2.89h1.92v-20.83h-1.98Zm-.58,16.38c-.41.98-1,1.74-1.78,2.29-.77.56-1.71.83-2.81.83s-2.08-.28-2.86-.86c-.77-.57-1.37-1.35-1.77-2.32-.41-.98-.61-2.08-.61-3.29s.2-2.28.6-3.25c.41-.96.99-1.72,1.77-2.29.78-.57,1.74-.85,2.87-.85s2.05.27,2.82.82c.78.55,1.37,1.3,1.77,2.26.41.96.61,2.06.61,3.31s-.2,2.38-.61,3.35Z" style="fill:#272623;"/><path d="m223.27,76.68c0-1.3-.2-2.44-.6-3.4-.4-.96-.94-1.76-1.62-2.39s-1.45-1.11-2.3-1.41c-.86-.31-1.75-.47-2.67-.47-1.47,0-2.76.35-3.88,1.04-1.12.7-1.99,1.66-2.62,2.88-.63,1.23-.95,2.63-.95,4.2s.32,2.98.95,4.19c.63,1.21,1.52,2.16,2.68,2.84,1.16.68,2.53,1.02,4.12,1.02,1.13,0,2.14-.17,3.01-.5.88-.34,1.61-.79,2.19-1.34.59-.56,1.01-1.16,1.27-1.82l-1.87-.56c-.21.47-.53.89-.95,1.29-.41.39-.93.7-1.53.93-.61.23-1.32.34-2.12.34-1.18,0-2.2-.25-3.07-.76-.86-.51-1.52-1.23-1.99-2.15-.44-.87-.68-1.88-.71-3.03h12.66v-.9Zm-12.65-.7c.07-.87.3-1.68.7-2.43.46-.87,1.1-1.57,1.92-2.1.81-.52,1.76-.79,2.84-.79,1.02,0,1.91.23,2.69.7.78.47,1.39,1.11,1.83,1.91s.66,1.71.66,2.71h-10.64Z" style="fill:#272623;"/><path d="m239.72,71.61c-.48-.85-1.15-1.49-2.02-1.93s-1.87-.66-3.01-.66c-1.25,0-2.3.24-3.14.73-.84.49-1.47,1.13-1.86,1.93h-.18v-2.45h-1.92v15.62h1.97v-9.76c0-.91.2-1.7.61-2.36.4-.66.95-1.17,1.64-1.52s1.49-.53,2.38-.53c1.3,0,2.34.37,3.12,1.12.78.75,1.17,1.76,1.17,3.04v10.01h1.97v-10.12c0-1.23-.24-2.27-.73-3.12Z" style="fill:#272623;"/><path d="m244.23,69.23v1.57h8.11v-1.57h-8.11Zm8.23,13.95c-.14.03-.3.06-.48.09-.19.03-.41.05-.67.05-.44,0-.86-.08-1.25-.23-.39-.15-.71-.41-.95-.78s-.36-.88-.36-1.54v-15.29h-1.98v15.72c0,.86.21,1.57.64,2.15.42.58.97,1.01,1.64,1.3s1.36.44,2.08.44c.42,0,.76-.03,1.04-.09.28-.06.52-.12.71-.19l-.42-1.63Z" style="fill:#272623;"/><path d="m258.88,64.32c-.29-.26-.64-.39-1.04-.39s-.75.13-1.04.39c-.29.25-.43.56-.43.92s.14.66.43.92c.29.25.63.38,1.04.38s.74-.13,1.03-.38c.29-.26.44-.56.44-.92s-.14-.67-.43-.92Zm-2.05,4.91v15.62h1.98v-15.62h-1.98Z" style="fill:#272623;"/><path d="m275.57,71.65c-.38-.68-.87-1.21-1.47-1.6-.61-.38-1.26-.65-1.96-.8-.71-.16-1.39-.24-2.03-.24-.87,0-1.72.12-2.56.34-.84.23-1.6.6-2.28,1.11s-1.21,1.2-1.59,2.05l1.87.62c.31-.67.85-1.25,1.62-1.75.77-.49,1.77-.74,2.99-.74,1.29,0,2.28.31,2.97.92.69.62,1.04,1.45,1.04,2.52v.37c0,.39-.18.67-.52.85-.35.18-.85.31-1.51.39-.66.08-1.47.17-2.42.28-.96.11-1.84.26-2.63.46-.8.2-1.49.46-2.07.8-.59.34-1.04.78-1.35,1.31-.32.53-.48,1.18-.48,1.95,0,1,.25,1.86.75,2.56.51.7,1.18,1.24,2.03,1.61.85.37,1.78.55,2.81.55.94,0,1.76-.14,2.47-.42.7-.27,1.28-.63,1.74-1.07.47-.43.82-.88,1.05-1.34h.13v2.47h1.96v-10.61c0-1.04-.18-1.91-.56-2.59Zm-1.4,7.21c0,.86-.21,1.64-.63,2.35-.42.71-1.01,1.27-1.77,1.7-.77.43-1.68.64-2.73.64-1.11,0-2.04-.26-2.77-.78-.74-.51-1.11-1.25-1.11-2.2,0-.63.18-1.15.54-1.55s.88-.72,1.56-.95,1.5-.4,2.46-.51c.35-.04.75-.09,1.19-.14.45-.06.89-.12,1.34-.2.44-.08.84-.17,1.18-.27.34-.1.59-.22.74-.35v2.26Z" style="fill:#272623;"/><path d="m281.37,64.02v20.83h1.97v-20.83h-1.97Z" style="fill:#272623;"/><path d="m312.53,80.33c-.4.61-.9,1.14-1.51,1.59-.6.45-1.29.8-2.05,1.05-.77.25-1.6.38-2.49.38-1.43,0-2.74-.34-3.91-1.02-1.18-.69-2.12-1.69-2.82-3.01-.71-1.32-1.06-2.95-1.06-4.88s.35-3.55,1.06-4.87c.7-1.33,1.64-2.33,2.82-3.02,1.17-.68,2.48-1.03,3.91-1.03.89,0,1.72.13,2.49.38.76.25,1.45.6,2.05,1.06.61.45,1.11.98,1.51,1.59.41.61.68,1.27.84,1.98h2.08c-.19-.96-.53-1.86-1.04-2.68-.5-.82-1.14-1.54-1.92-2.16-.78-.62-1.67-1.1-2.68-1.44-1.01-.35-2.12-.52-3.33-.52-1.91,0-3.59.44-5.07,1.32-1.47.88-2.63,2.12-3.47,3.72-.83,1.6-1.25,3.49-1.25,5.67s.42,4.06,1.25,5.66c.84,1.6,2,2.84,3.47,3.72,1.48.88,3.16,1.32,5.07,1.32,1.21,0,2.32-.17,3.33-.52,1.01-.35,1.9-.83,2.68-1.44.78-.62,1.42-1.34,1.92-2.17.51-.82.85-1.71,1.04-2.67h-2.08c-.16.71-.43,1.38-.84,1.99Z" style="fill:#272623;"/><path d="m319.91,64.02v20.83h1.97v-20.83h-1.97Z" style="fill:#272623;"/><path d="m340.84,76.68c0-1.3-.2-2.44-.6-3.4-.4-.96-.94-1.76-1.62-2.39s-1.45-1.11-2.31-1.41c-.85-.31-1.74-.47-2.66-.47-1.47,0-2.76.35-3.88,1.04-1.12.7-1.99,1.66-2.62,2.88-.63,1.23-.95,2.63-.95,4.2s.32,2.98.95,4.19c.63,1.21,1.52,2.16,2.68,2.84,1.16.68,2.53,1.02,4.11,1.02,1.14,0,2.14-.17,3.02-.5.87-.34,1.6-.79,2.19-1.34.58-.56,1.01-1.16,1.27-1.82l-1.87-.56c-.22.47-.53.89-.95,1.29-.42.39-.93.7-1.54.93-.61.23-1.31.34-2.12.34-1.18,0-2.2-.25-3.06-.76s-1.53-1.23-2-2.15c-.44-.87-.67-1.88-.7-3.03h12.66v-.9Zm-12.65-.7c.07-.87.29-1.68.69-2.43.46-.87,1.1-1.57,1.92-2.1.82-.52,1.77-.79,2.85-.79,1.01,0,1.91.23,2.69.7.78.47,1.39,1.11,1.82,1.91.44.8.66,1.71.66,2.71h-10.63Z" style="fill:#272623;"/><path d="m356.7,71.65c-.38-.68-.87-1.21-1.47-1.6-.61-.38-1.26-.65-1.97-.8-.7-.16-1.38-.24-2.03-.24-.86,0-1.71.12-2.55.34-.84.23-1.6.6-2.28,1.11-.68.51-1.21,1.2-1.59,2.05l1.87.62c.31-.67.85-1.25,1.62-1.75.77-.49,1.76-.74,2.99-.74,1.29,0,2.28.31,2.97.92.69.62,1.03,1.45,1.03,2.52v.37c0,.39-.17.67-.52.85-.34.18-.85.31-1.51.39-.66.08-1.46.17-2.41.28-.96.11-1.84.26-2.64.46-.79.2-1.48.46-2.07.8-.58.34-1.03.78-1.35,1.31-.31.53-.47,1.18-.47,1.95,0,1,.25,1.86.75,2.56.5.7,1.18,1.24,2.03,1.61.84.37,1.78.55,2.81.55.94,0,1.76-.14,2.46-.42.7-.27,1.29-.63,1.75-1.07.46-.43.82-.88,1.05-1.34h.12v2.47h1.97v-10.61c0-1.04-.19-1.91-.56-2.59Zm-1.41,7.21c0,.86-.21,1.64-.62,2.35-.42.71-1.01,1.27-1.78,1.7-.76.43-1.67.64-2.72.64-1.11,0-2.04-.26-2.78-.78-.73-.51-1.1-1.25-1.1-2.2,0-.63.18-1.15.54-1.55.36-.4.88-.72,1.56-.95s1.5-.4,2.46-.51c.35-.04.75-.09,1.19-.14.44-.06.89-.12,1.33-.2.45-.08.84-.17,1.19-.27.34-.1.59-.22.73-.35v2.26Z" style="fill:#272623;"/><path d="m374.62,71.61c-.48-.85-1.15-1.49-2.02-1.93s-1.87-.66-3.02-.66c-1.24,0-2.29.24-3.13.73-.85.49-1.47,1.13-1.87,1.93h-.17v-2.45h-1.92v15.62h1.97v-9.76c0-.91.2-1.7.61-2.36.4-.66.95-1.17,1.64-1.52s1.48-.53,2.38-.53c1.3,0,2.34.37,3.12,1.12.78.75,1.17,1.76,1.17,3.04v10.01h1.97v-10.12c0-1.23-.24-2.27-.73-3.12Z" style="fill:#272623;"/><path d="m382.62,64.32c-.29-.26-.64-.39-1.04-.39s-.75.13-1.04.39c-.29.25-.44.56-.44.92s.15.66.44.92c.28.25.63.38,1.04.38s.74-.13,1.03-.38c.29-.26.44-.56.44-.92s-.15-.67-.43-.92Zm-2.05,4.91v15.62h1.98v-15.62h-1.98Z" style="fill:#272623;"/><path d="m399.9,71.61c-.48-.85-1.16-1.49-2.02-1.93-.87-.44-1.88-.66-3.02-.66-1.24,0-2.29.24-3.13.73-.85.49-1.47,1.13-1.87,1.93h-.18v-2.45h-1.91v15.62h1.97v-9.76c0-.91.2-1.7.6-2.36.4-.66.95-1.17,1.65-1.52.69-.35,1.48-.53,2.37-.53,1.31,0,2.35.37,3.13,1.12.78.75,1.17,1.76,1.17,3.04v10.01h1.96v-10.12c0-1.23-.24-2.27-.72-3.12Z" style="fill:#272623;"/><path d="m417.4,69.23v2.98h-.2c-.24-.47-.57-.95-.98-1.45-.42-.49-.97-.91-1.66-1.24-.68-.34-1.55-.51-2.59-.51-1.4,0-2.62.34-3.68,1.01-1.05.67-1.87,1.61-2.46,2.81-.59,1.2-.88,2.59-.88,4.17s.3,2.97.9,4.12c.6,1.14,1.43,2.03,2.48,2.65,1.05.61,2.25.92,3.61.92,1.02,0,1.87-.15,2.56-.47.69-.31,1.25-.7,1.68-1.17.43-.47.75-.95.98-1.42h.18v3.52c0,1.46-.46,2.53-1.39,3.23-.92.69-2.14,1.03-3.64,1.03-.97,0-1.78-.12-2.44-.37-.66-.25-1.2-.57-1.61-.95-.41-.38-.73-.77-.98-1.16l-1.61.98c.33.59.8,1.12,1.39,1.6.6.47,1.33.84,2.2,1.12.87.27,1.89.41,3.05.41,1.34,0,2.54-.2,3.59-.61,1.06-.42,1.89-1.05,2.5-1.9.61-.86.92-1.95.92-3.27v-16.03h-1.92Zm-.65,10.99c-.41.9-1,1.6-1.78,2.09-.77.48-1.7.72-2.8.72s-2.07-.25-2.85-.77c-.78-.51-1.38-1.22-1.78-2.13-.41-.91-.61-1.97-.61-3.16s.2-2.24.6-3.19c.4-.95.99-1.71,1.77-2.27.78-.57,1.74-.85,2.87-.85s2.06.27,2.83.82c.77.55,1.36,1.29,1.76,2.24.41.94.61,2.03.61,3.25s-.2,2.34-.62,3.25Z" style="fill:#272623;"/></g></svg>